<mxfile host="app.diagrams.net" agent="Mozilla/5.0 (Windows NT 10.0; Win64; x64) AppleWebKit/537.36 (KHTML, like Gecko) Chrome/129.0.0.0 Safari/537.36" version="24.8.0" pages="3">
  <diagram name="Page-1" id="qAQH3wbRmmkSnp-fNP5e">
    <mxGraphModel dx="4177" dy="2714" grid="1" gridSize="10" guides="1" tooltips="1" connect="1" arrows="1" fold="1" page="1" pageScale="1" pageWidth="827" pageHeight="1169" math="0" shadow="0">
      <root>
        <mxCell id="0" />
        <mxCell id="1" parent="0" />
        <mxCell id="FfVrsh1gVAjEYy1d9AUI-1" value="Клиент" style="shape=umlActor;verticalLabelPosition=bottom;verticalAlign=top;html=1;outlineConnect=0;" vertex="1" parent="1">
          <mxGeometry x="285" y="590" width="30" height="60" as="geometry" />
        </mxCell>
        <mxCell id="FfVrsh1gVAjEYy1d9AUI-2" value="&lt;span style=&quot;text-wrap: nowrap;&quot;&gt;Оформление&amp;nbsp;&lt;/span&gt;&lt;div style=&quot;text-wrap: nowrap;&quot;&gt;заказа&lt;/div&gt;" style="ellipse;whiteSpace=wrap;html=1;" vertex="1" parent="1">
          <mxGeometry x="455" y="480" width="100" height="60" as="geometry" />
        </mxCell>
        <mxCell id="FfVrsh1gVAjEYy1d9AUI-3" value="&lt;span style=&quot;text-wrap: nowrap;&quot;&gt;Отслеживание&amp;nbsp;&lt;/span&gt;&lt;div&gt;&lt;span style=&quot;text-wrap: nowrap;&quot;&gt;заказа&lt;/span&gt;&lt;br&gt;&lt;/div&gt;" style="ellipse;whiteSpace=wrap;html=1;" vertex="1" parent="1">
          <mxGeometry x="455" y="590" width="100" height="60" as="geometry" />
        </mxCell>
        <mxCell id="FfVrsh1gVAjEYy1d9AUI-4" value="отзыв о заказе" style="ellipse;whiteSpace=wrap;html=1;" vertex="1" parent="1">
          <mxGeometry x="455" y="700" width="100" height="60" as="geometry" />
        </mxCell>
        <mxCell id="FfVrsh1gVAjEYy1d9AUI-5" value="" style="endArrow=classic;html=1;rounded=0;exitX=1;exitY=0.3333333333333333;exitDx=0;exitDy=0;exitPerimeter=0;entryX=0;entryY=0.5;entryDx=0;entryDy=0;" edge="1" parent="1" source="FfVrsh1gVAjEYy1d9AUI-1" target="FfVrsh1gVAjEYy1d9AUI-2">
          <mxGeometry width="50" height="50" relative="1" as="geometry">
            <mxPoint x="495" y="780" as="sourcePoint" />
            <mxPoint x="545" y="730" as="targetPoint" />
          </mxGeometry>
        </mxCell>
        <mxCell id="FfVrsh1gVAjEYy1d9AUI-6" value="" style="endArrow=classic;html=1;rounded=0;entryX=0;entryY=0.5;entryDx=0;entryDy=0;" edge="1" parent="1" target="FfVrsh1gVAjEYy1d9AUI-3">
          <mxGeometry width="50" height="50" relative="1" as="geometry">
            <mxPoint x="315" y="610" as="sourcePoint" />
            <mxPoint x="465" y="520" as="targetPoint" />
          </mxGeometry>
        </mxCell>
        <mxCell id="FfVrsh1gVAjEYy1d9AUI-7" value="" style="endArrow=classic;html=1;rounded=0;entryX=0;entryY=0.5;entryDx=0;entryDy=0;" edge="1" parent="1" target="FfVrsh1gVAjEYy1d9AUI-4">
          <mxGeometry width="50" height="50" relative="1" as="geometry">
            <mxPoint x="315" y="610" as="sourcePoint" />
            <mxPoint x="465" y="630" as="targetPoint" />
          </mxGeometry>
        </mxCell>
        <mxCell id="FfVrsh1gVAjEYy1d9AUI-8" value="&lt;span style=&quot;text-wrap: nowrap;&quot;&gt;Оформление&amp;nbsp;&lt;/span&gt;&lt;div style=&quot;text-wrap: nowrap;&quot;&gt;заказа&lt;/div&gt;" style="ellipse;whiteSpace=wrap;html=1;" vertex="1" parent="1">
          <mxGeometry x="385" y="-650" width="100" height="60" as="geometry" />
        </mxCell>
        <mxCell id="FfVrsh1gVAjEYy1d9AUI-9" value="интерфейс заказа" style="shape=umlBoundary;whiteSpace=wrap;html=1;" vertex="1" parent="1">
          <mxGeometry x="140" y="-510" width="90" height="70" as="geometry" />
        </mxCell>
        <mxCell id="FfVrsh1gVAjEYy1d9AUI-10" value="интерфейс оплаты" style="shape=umlBoundary;whiteSpace=wrap;html=1;" vertex="1" parent="1">
          <mxGeometry x="260" y="-510" width="90" height="70" as="geometry" />
        </mxCell>
        <mxCell id="FfVrsh1gVAjEYy1d9AUI-11" value="Заказ" style="ellipse;shape=umlEntity;whiteSpace=wrap;html=1;" vertex="1" parent="1">
          <mxGeometry x="650" y="-510" width="70" height="70" as="geometry" />
        </mxCell>
        <mxCell id="FfVrsh1gVAjEYy1d9AUI-12" value="менеджер&amp;nbsp;&lt;div&gt;заказов&lt;/div&gt;" style="ellipse;shape=umlControl;whiteSpace=wrap;html=1;" vertex="1" parent="1">
          <mxGeometry x="527" y="-515" width="70" height="80" as="geometry" />
        </mxCell>
        <mxCell id="FfVrsh1gVAjEYy1d9AUI-13" value="Менеджер&amp;nbsp;&lt;div&gt;оплаты&lt;/div&gt;" style="ellipse;shape=umlControl;whiteSpace=wrap;html=1;" vertex="1" parent="1">
          <mxGeometry x="400" y="-515" width="70" height="80" as="geometry" />
        </mxCell>
        <mxCell id="FfVrsh1gVAjEYy1d9AUI-14" value="" style="endArrow=none;dashed=1;html=1;rounded=0;entryX=0.5;entryY=1;entryDx=0;entryDy=0;exitX=0.648;exitY=0.088;exitDx=0;exitDy=0;exitPerimeter=0;" edge="1" parent="1" source="FfVrsh1gVAjEYy1d9AUI-9" target="FfVrsh1gVAjEYy1d9AUI-8">
          <mxGeometry width="50" height="50" relative="1" as="geometry">
            <mxPoint x="430" y="-350" as="sourcePoint" />
            <mxPoint x="480" y="-400" as="targetPoint" />
          </mxGeometry>
        </mxCell>
        <mxCell id="FfVrsh1gVAjEYy1d9AUI-15" value="" style="endArrow=none;dashed=1;html=1;rounded=0;entryX=0.5;entryY=1;entryDx=0;entryDy=0;exitX=0.698;exitY=-0.01;exitDx=0;exitDy=0;exitPerimeter=0;" edge="1" parent="1" source="FfVrsh1gVAjEYy1d9AUI-10" target="FfVrsh1gVAjEYy1d9AUI-8">
          <mxGeometry width="50" height="50" relative="1" as="geometry">
            <mxPoint x="208" y="-494" as="sourcePoint" />
            <mxPoint x="445" y="-580" as="targetPoint" />
          </mxGeometry>
        </mxCell>
        <mxCell id="FfVrsh1gVAjEYy1d9AUI-16" value="" style="endArrow=none;dashed=1;html=1;rounded=0;entryX=0.5;entryY=1;entryDx=0;entryDy=0;" edge="1" parent="1" source="FfVrsh1gVAjEYy1d9AUI-13" target="FfVrsh1gVAjEYy1d9AUI-8">
          <mxGeometry width="50" height="50" relative="1" as="geometry">
            <mxPoint x="333" y="-501" as="sourcePoint" />
            <mxPoint x="445" y="-580" as="targetPoint" />
          </mxGeometry>
        </mxCell>
        <mxCell id="FfVrsh1gVAjEYy1d9AUI-17" value="" style="endArrow=none;dashed=1;html=1;rounded=0;entryX=0.5;entryY=1;entryDx=0;entryDy=0;exitX=0.365;exitY=0.096;exitDx=0;exitDy=0;exitPerimeter=0;" edge="1" parent="1" source="FfVrsh1gVAjEYy1d9AUI-12" target="FfVrsh1gVAjEYy1d9AUI-8">
          <mxGeometry width="50" height="50" relative="1" as="geometry">
            <mxPoint x="445" y="-505" as="sourcePoint" />
            <mxPoint x="445" y="-580" as="targetPoint" />
          </mxGeometry>
        </mxCell>
        <mxCell id="FfVrsh1gVAjEYy1d9AUI-18" value="" style="endArrow=none;dashed=1;html=1;rounded=0;entryX=0.5;entryY=1;entryDx=0;entryDy=0;exitX=0.5;exitY=0;exitDx=0;exitDy=0;" edge="1" parent="1" source="FfVrsh1gVAjEYy1d9AUI-11" target="FfVrsh1gVAjEYy1d9AUI-8">
          <mxGeometry width="50" height="50" relative="1" as="geometry">
            <mxPoint x="563" y="-497" as="sourcePoint" />
            <mxPoint x="445" y="-580" as="targetPoint" />
          </mxGeometry>
        </mxCell>
        <mxCell id="FfVrsh1gVAjEYy1d9AUI-19" value="Клиент" style="shape=umlActor;verticalLabelPosition=bottom;verticalAlign=top;html=1;outlineConnect=0;" vertex="1" parent="1">
          <mxGeometry x="150" y="-190" width="30" height="60" as="geometry" />
        </mxCell>
        <mxCell id="FfVrsh1gVAjEYy1d9AUI-24" value="интерфейс заказа" style="shape=umlBoundary;whiteSpace=wrap;html=1;" vertex="1" parent="1">
          <mxGeometry x="285" y="-260" width="90" height="70" as="geometry" />
        </mxCell>
        <mxCell id="FfVrsh1gVAjEYy1d9AUI-25" value="интерфейс оплаты" style="shape=umlBoundary;whiteSpace=wrap;html=1;" vertex="1" parent="1">
          <mxGeometry x="285" y="-120" width="90" height="70" as="geometry" />
        </mxCell>
        <mxCell id="FfVrsh1gVAjEYy1d9AUI-26" value="" style="endArrow=classic;html=1;rounded=0;exitX=0.5;exitY=0.5;exitDx=0;exitDy=0;exitPerimeter=0;entryX=-0.011;entryY=0.543;entryDx=0;entryDy=0;entryPerimeter=0;" edge="1" parent="1" source="FfVrsh1gVAjEYy1d9AUI-19" target="FfVrsh1gVAjEYy1d9AUI-24">
          <mxGeometry width="50" height="50" relative="1" as="geometry">
            <mxPoint x="410" y="-290" as="sourcePoint" />
            <mxPoint x="460" y="-340" as="targetPoint" />
          </mxGeometry>
        </mxCell>
        <mxCell id="FfVrsh1gVAjEYy1d9AUI-27" value="" style="endArrow=classic;html=1;rounded=0;entryX=-0.049;entryY=0.518;entryDx=0;entryDy=0;entryPerimeter=0;exitX=0.5;exitY=0.5;exitDx=0;exitDy=0;exitPerimeter=0;" edge="1" parent="1" source="FfVrsh1gVAjEYy1d9AUI-19" target="FfVrsh1gVAjEYy1d9AUI-25">
          <mxGeometry width="50" height="50" relative="1" as="geometry">
            <mxPoint x="160" y="-160" as="sourcePoint" />
            <mxPoint x="294" y="-212" as="targetPoint" />
          </mxGeometry>
        </mxCell>
        <mxCell id="FfVrsh1gVAjEYy1d9AUI-28" value="менеджер&amp;nbsp;&lt;div&gt;заказов&lt;/div&gt;" style="ellipse;shape=umlControl;whiteSpace=wrap;html=1;" vertex="1" parent="1">
          <mxGeometry x="480" y="-250" width="70" height="80" as="geometry" />
        </mxCell>
        <mxCell id="FfVrsh1gVAjEYy1d9AUI-29" value="Менеджер&amp;nbsp;&lt;div&gt;оплаты&lt;/div&gt;" style="ellipse;shape=umlControl;whiteSpace=wrap;html=1;" vertex="1" parent="1">
          <mxGeometry x="480" y="-150" width="70" height="80" as="geometry" />
        </mxCell>
        <mxCell id="FfVrsh1gVAjEYy1d9AUI-30" value="Заказ" style="ellipse;shape=umlEntity;whiteSpace=wrap;html=1;" vertex="1" parent="1">
          <mxGeometry x="630" y="-200" width="70" height="70" as="geometry" />
        </mxCell>
        <mxCell id="FfVrsh1gVAjEYy1d9AUI-31" value="" style="endArrow=none;html=1;rounded=0;exitX=1.03;exitY=0.51;exitDx=0;exitDy=0;exitPerimeter=0;entryX=-0.024;entryY=0.521;entryDx=0;entryDy=0;entryPerimeter=0;" edge="1" parent="1" source="FfVrsh1gVAjEYy1d9AUI-24" target="FfVrsh1gVAjEYy1d9AUI-28">
          <mxGeometry width="50" height="50" relative="1" as="geometry">
            <mxPoint x="430" y="-290" as="sourcePoint" />
            <mxPoint x="480" y="-340" as="targetPoint" />
          </mxGeometry>
        </mxCell>
        <mxCell id="FfVrsh1gVAjEYy1d9AUI-32" value="" style="endArrow=none;html=1;rounded=0;exitX=0.954;exitY=0.42;exitDx=0;exitDy=0;exitPerimeter=0;entryX=0.008;entryY=0.586;entryDx=0;entryDy=0;entryPerimeter=0;" edge="1" parent="1" source="FfVrsh1gVAjEYy1d9AUI-25" target="FfVrsh1gVAjEYy1d9AUI-29">
          <mxGeometry width="50" height="50" relative="1" as="geometry">
            <mxPoint x="430" y="-290" as="sourcePoint" />
            <mxPoint x="480" y="-340" as="targetPoint" />
          </mxGeometry>
        </mxCell>
        <mxCell id="FfVrsh1gVAjEYy1d9AUI-33" value="" style="endArrow=none;html=1;rounded=0;exitX=0.929;exitY=0.771;exitDx=0;exitDy=0;exitPerimeter=0;entryX=0.057;entryY=0.614;entryDx=0;entryDy=0;entryPerimeter=0;" edge="1" parent="1" source="FfVrsh1gVAjEYy1d9AUI-24" target="FfVrsh1gVAjEYy1d9AUI-29">
          <mxGeometry width="50" height="50" relative="1" as="geometry">
            <mxPoint x="430" y="-290" as="sourcePoint" />
            <mxPoint x="480" y="-340" as="targetPoint" />
          </mxGeometry>
        </mxCell>
        <mxCell id="FfVrsh1gVAjEYy1d9AUI-34" value="" style="html=1;verticalAlign=bottom;labelBackgroundColor=none;endArrow=open;endFill=0;dashed=1;rounded=0;entryX=-0.015;entryY=0.367;entryDx=0;entryDy=0;entryPerimeter=0;" edge="1" parent="1" source="FfVrsh1gVAjEYy1d9AUI-28" target="FfVrsh1gVAjEYy1d9AUI-30">
          <mxGeometry width="160" relative="1" as="geometry">
            <mxPoint x="380" y="-310" as="sourcePoint" />
            <mxPoint x="540" y="-310" as="targetPoint" />
          </mxGeometry>
        </mxCell>
        <mxCell id="FfVrsh1gVAjEYy1d9AUI-35" value="" style="html=1;verticalAlign=bottom;labelBackgroundColor=none;endArrow=open;endFill=0;dashed=1;rounded=0;entryX=0.07;entryY=0.733;entryDx=0;entryDy=0;exitX=0.985;exitY=0.496;exitDx=0;exitDy=0;exitPerimeter=0;entryPerimeter=0;" edge="1" parent="1" source="FfVrsh1gVAjEYy1d9AUI-29" target="FfVrsh1gVAjEYy1d9AUI-30">
          <mxGeometry width="160" relative="1" as="geometry">
            <mxPoint x="558" y="-187" as="sourcePoint" />
            <mxPoint x="640" y="-155" as="targetPoint" />
          </mxGeometry>
        </mxCell>
        <mxCell id="FfVrsh1gVAjEYy1d9AUI-36" value="&lt;span style=&quot;text-wrap: nowrap;&quot;&gt;Отслеживание&amp;nbsp;&lt;/span&gt;&lt;div&gt;&lt;span style=&quot;text-wrap: nowrap;&quot;&gt;заказа&lt;/span&gt;&lt;/div&gt;" style="ellipse;whiteSpace=wrap;html=1;" vertex="1" parent="1">
          <mxGeometry x="1125" y="-570" width="100" height="60" as="geometry" />
        </mxCell>
        <mxCell id="FfVrsh1gVAjEYy1d9AUI-37" value="интерфейс&amp;nbsp;&lt;div&gt;&lt;span style=&quot;text-wrap: nowrap;&quot;&gt;Отслеживание&amp;nbsp;&lt;/span&gt;&lt;div&gt;&lt;span style=&quot;text-wrap: nowrap;&quot;&gt;заказа&lt;/span&gt;&lt;/div&gt;&lt;/div&gt;" style="shape=umlBoundary;whiteSpace=wrap;html=1;" vertex="1" parent="1">
          <mxGeometry x="880" y="-430" width="100" height="80" as="geometry" />
        </mxCell>
        <mxCell id="FfVrsh1gVAjEYy1d9AUI-39" value="Заказ" style="ellipse;shape=umlEntity;whiteSpace=wrap;html=1;" vertex="1" parent="1">
          <mxGeometry x="1390" y="-430" width="70" height="70" as="geometry" />
        </mxCell>
        <mxCell id="FfVrsh1gVAjEYy1d9AUI-40" value="менеджер&amp;nbsp;&lt;div&gt;заказов&lt;/div&gt;" style="ellipse;shape=umlControl;whiteSpace=wrap;html=1;" vertex="1" parent="1">
          <mxGeometry x="1200" y="-430" width="70" height="80" as="geometry" />
        </mxCell>
        <mxCell id="FfVrsh1gVAjEYy1d9AUI-41" value="Менеджер по доставке" style="ellipse;shape=umlControl;whiteSpace=wrap;html=1;" vertex="1" parent="1">
          <mxGeometry x="1060" y="-435" width="70" height="80" as="geometry" />
        </mxCell>
        <mxCell id="FfVrsh1gVAjEYy1d9AUI-42" value="" style="endArrow=none;dashed=1;html=1;rounded=0;entryX=0.5;entryY=1;entryDx=0;entryDy=0;exitX=0.79;exitY=0.088;exitDx=0;exitDy=0;exitPerimeter=0;" edge="1" parent="1" source="FfVrsh1gVAjEYy1d9AUI-37" target="FfVrsh1gVAjEYy1d9AUI-36">
          <mxGeometry width="50" height="50" relative="1" as="geometry">
            <mxPoint x="1170" y="-270" as="sourcePoint" />
            <mxPoint x="1220" y="-320" as="targetPoint" />
          </mxGeometry>
        </mxCell>
        <mxCell id="FfVrsh1gVAjEYy1d9AUI-44" value="" style="endArrow=none;dashed=1;html=1;rounded=0;entryX=0.5;entryY=1;entryDx=0;entryDy=0;exitX=0.671;exitY=0.125;exitDx=0;exitDy=0;exitPerimeter=0;" edge="1" parent="1" source="FfVrsh1gVAjEYy1d9AUI-41" target="FfVrsh1gVAjEYy1d9AUI-36">
          <mxGeometry width="50" height="50" relative="1" as="geometry">
            <mxPoint x="1073" y="-421" as="sourcePoint" />
            <mxPoint x="1185" y="-500" as="targetPoint" />
          </mxGeometry>
        </mxCell>
        <mxCell id="FfVrsh1gVAjEYy1d9AUI-45" value="" style="endArrow=none;dashed=1;html=1;rounded=0;entryX=0.5;entryY=1;entryDx=0;entryDy=0;exitX=0.365;exitY=0.096;exitDx=0;exitDy=0;exitPerimeter=0;" edge="1" parent="1" source="FfVrsh1gVAjEYy1d9AUI-40" target="FfVrsh1gVAjEYy1d9AUI-36">
          <mxGeometry width="50" height="50" relative="1" as="geometry">
            <mxPoint x="1185" y="-425" as="sourcePoint" />
            <mxPoint x="1185" y="-500" as="targetPoint" />
          </mxGeometry>
        </mxCell>
        <mxCell id="FfVrsh1gVAjEYy1d9AUI-46" value="" style="endArrow=none;dashed=1;html=1;rounded=0;entryX=0.5;entryY=1;entryDx=0;entryDy=0;exitX=0.5;exitY=0;exitDx=0;exitDy=0;" edge="1" parent="1" source="FfVrsh1gVAjEYy1d9AUI-39" target="FfVrsh1gVAjEYy1d9AUI-36">
          <mxGeometry width="50" height="50" relative="1" as="geometry">
            <mxPoint x="1303" y="-417" as="sourcePoint" />
            <mxPoint x="1185" y="-500" as="targetPoint" />
          </mxGeometry>
        </mxCell>
        <mxCell id="FfVrsh1gVAjEYy1d9AUI-47" value="Клиент" style="shape=umlActor;verticalLabelPosition=bottom;verticalAlign=top;html=1;outlineConnect=0;" vertex="1" parent="1">
          <mxGeometry x="890" y="-220" width="30" height="60" as="geometry" />
        </mxCell>
        <mxCell id="FfVrsh1gVAjEYy1d9AUI-48" value="интерфейс&amp;nbsp;&lt;div&gt;&lt;span style=&quot;text-wrap: nowrap;&quot;&gt;Отслеживание&amp;nbsp;&lt;/span&gt;&lt;div&gt;&lt;span style=&quot;text-wrap: nowrap;&quot;&gt;заказа&lt;/span&gt;&lt;/div&gt;&lt;/div&gt;" style="shape=umlBoundary;whiteSpace=wrap;html=1;" vertex="1" parent="1">
          <mxGeometry x="1000" y="-230" width="100" height="80" as="geometry" />
        </mxCell>
        <mxCell id="FfVrsh1gVAjEYy1d9AUI-49" value="" style="endArrow=none;html=1;rounded=0;exitX=0.5;exitY=0.5;exitDx=0;exitDy=0;exitPerimeter=0;entryX=-0.02;entryY=0.525;entryDx=0;entryDy=0;entryPerimeter=0;" edge="1" parent="1" source="FfVrsh1gVAjEYy1d9AUI-47" target="FfVrsh1gVAjEYy1d9AUI-48">
          <mxGeometry width="50" height="50" relative="1" as="geometry">
            <mxPoint x="1110" y="-120" as="sourcePoint" />
            <mxPoint x="1160" y="-170" as="targetPoint" />
          </mxGeometry>
        </mxCell>
        <mxCell id="FfVrsh1gVAjEYy1d9AUI-50" value="Менеджер по доставке" style="ellipse;shape=umlControl;whiteSpace=wrap;html=1;" vertex="1" parent="1">
          <mxGeometry x="1167" y="-150" width="70" height="80" as="geometry" />
        </mxCell>
        <mxCell id="FfVrsh1gVAjEYy1d9AUI-51" value="менеджер&amp;nbsp;&lt;div&gt;заказов&lt;/div&gt;" style="ellipse;shape=umlControl;whiteSpace=wrap;html=1;" vertex="1" parent="1">
          <mxGeometry x="1167" y="-300" width="70" height="80" as="geometry" />
        </mxCell>
        <mxCell id="FfVrsh1gVAjEYy1d9AUI-52" value="Заказ" style="ellipse;shape=umlEntity;whiteSpace=wrap;html=1;" vertex="1" parent="1">
          <mxGeometry x="1340" y="-230" width="70" height="70" as="geometry" />
        </mxCell>
        <mxCell id="FfVrsh1gVAjEYy1d9AUI-53" value="" style="endArrow=none;html=1;rounded=0;exitX=0.94;exitY=0.275;exitDx=0;exitDy=0;exitPerimeter=0;entryX=0.086;entryY=0.725;entryDx=0;entryDy=0;entryPerimeter=0;" edge="1" parent="1" source="FfVrsh1gVAjEYy1d9AUI-48" target="FfVrsh1gVAjEYy1d9AUI-51">
          <mxGeometry width="50" height="50" relative="1" as="geometry">
            <mxPoint x="1160" y="-120" as="sourcePoint" />
            <mxPoint x="1210" y="-170" as="targetPoint" />
          </mxGeometry>
        </mxCell>
        <mxCell id="FfVrsh1gVAjEYy1d9AUI-54" value="" style="endArrow=none;html=1;rounded=0;exitX=0.98;exitY=0.725;exitDx=0;exitDy=0;exitPerimeter=0;entryX=0.014;entryY=0.338;entryDx=0;entryDy=0;entryPerimeter=0;" edge="1" parent="1" source="FfVrsh1gVAjEYy1d9AUI-48" target="FfVrsh1gVAjEYy1d9AUI-50">
          <mxGeometry width="50" height="50" relative="1" as="geometry">
            <mxPoint x="1104" y="-198" as="sourcePoint" />
            <mxPoint x="1183" y="-232" as="targetPoint" />
          </mxGeometry>
        </mxCell>
        <mxCell id="FfVrsh1gVAjEYy1d9AUI-55" value="" style="html=1;verticalAlign=bottom;labelBackgroundColor=none;endArrow=open;endFill=0;dashed=1;rounded=0;entryX=0.029;entryY=0.271;entryDx=0;entryDy=0;exitX=1;exitY=0.638;exitDx=0;exitDy=0;exitPerimeter=0;entryPerimeter=0;" edge="1" parent="1" source="FfVrsh1gVAjEYy1d9AUI-51" target="FfVrsh1gVAjEYy1d9AUI-52">
          <mxGeometry width="160" relative="1" as="geometry">
            <mxPoint x="1300" y="-340" as="sourcePoint" />
            <mxPoint x="1386" y="-379" as="targetPoint" />
          </mxGeometry>
        </mxCell>
        <mxCell id="FfVrsh1gVAjEYy1d9AUI-56" value="" style="html=1;verticalAlign=bottom;labelBackgroundColor=none;endArrow=open;endFill=0;dashed=1;rounded=0;entryX=0;entryY=0.714;entryDx=0;entryDy=0;exitX=0.943;exitY=0.4;exitDx=0;exitDy=0;exitPerimeter=0;entryPerimeter=0;" edge="1" parent="1" source="FfVrsh1gVAjEYy1d9AUI-50" target="FfVrsh1gVAjEYy1d9AUI-52">
          <mxGeometry width="160" relative="1" as="geometry">
            <mxPoint x="1247" y="-239" as="sourcePoint" />
            <mxPoint x="1352" y="-201" as="targetPoint" />
          </mxGeometry>
        </mxCell>
        <mxCell id="FfVrsh1gVAjEYy1d9AUI-80" value="Клиент" style="shape=umlActor;verticalLabelPosition=bottom;verticalAlign=top;html=1;outlineConnect=0;" vertex="1" parent="1">
          <mxGeometry x="670" y="580" width="30" height="60" as="geometry" />
        </mxCell>
        <mxCell id="FfVrsh1gVAjEYy1d9AUI-99" value="интерфейс заказа" style="shape=umlBoundary;whiteSpace=wrap;html=1;" vertex="1" parent="1">
          <mxGeometry x="902.5" y="500" width="90" height="70" as="geometry" />
        </mxCell>
        <mxCell id="FfVrsh1gVAjEYy1d9AUI-100" value="интерфейс оплаты" style="shape=umlBoundary;whiteSpace=wrap;html=1;" vertex="1" parent="1">
          <mxGeometry x="902.5" y="640" width="90" height="70" as="geometry" />
        </mxCell>
        <mxCell id="FfVrsh1gVAjEYy1d9AUI-101" value="" style="endArrow=classic;html=1;rounded=0;entryX=-0.011;entryY=0.543;entryDx=0;entryDy=0;entryPerimeter=0;" edge="1" parent="1" target="FfVrsh1gVAjEYy1d9AUI-99">
          <mxGeometry width="50" height="50" relative="1" as="geometry">
            <mxPoint x="700" y="600" as="sourcePoint" />
            <mxPoint x="1077.5" y="420" as="targetPoint" />
          </mxGeometry>
        </mxCell>
        <mxCell id="FfVrsh1gVAjEYy1d9AUI-102" value="" style="endArrow=classic;html=1;rounded=0;entryX=-0.049;entryY=0.518;entryDx=0;entryDy=0;entryPerimeter=0;exitX=1;exitY=0.3333333333333333;exitDx=0;exitDy=0;exitPerimeter=0;" edge="1" parent="1" source="FfVrsh1gVAjEYy1d9AUI-80" target="FfVrsh1gVAjEYy1d9AUI-100">
          <mxGeometry width="50" height="50" relative="1" as="geometry">
            <mxPoint x="700" y="610" as="sourcePoint" />
            <mxPoint x="911.5" y="548" as="targetPoint" />
          </mxGeometry>
        </mxCell>
        <mxCell id="FfVrsh1gVAjEYy1d9AUI-103" value="менеджер&amp;nbsp;&lt;div&gt;заказов&lt;/div&gt;" style="ellipse;shape=umlControl;whiteSpace=wrap;html=1;" vertex="1" parent="1">
          <mxGeometry x="1097" y="460" width="70" height="80" as="geometry" />
        </mxCell>
        <mxCell id="FfVrsh1gVAjEYy1d9AUI-104" value="Менеджер&amp;nbsp;&lt;div&gt;оплаты&lt;/div&gt;" style="ellipse;shape=umlControl;whiteSpace=wrap;html=1;" vertex="1" parent="1">
          <mxGeometry x="1097" y="620" width="70" height="80" as="geometry" />
        </mxCell>
        <mxCell id="FfVrsh1gVAjEYy1d9AUI-105" value="Заказ" style="ellipse;shape=umlEntity;whiteSpace=wrap;html=1;" vertex="1" parent="1">
          <mxGeometry x="1270" y="560" width="70" height="70" as="geometry" />
        </mxCell>
        <mxCell id="FfVrsh1gVAjEYy1d9AUI-106" value="" style="endArrow=none;html=1;rounded=0;exitX=1.03;exitY=0.51;exitDx=0;exitDy=0;exitPerimeter=0;entryX=-0.024;entryY=0.521;entryDx=0;entryDy=0;entryPerimeter=0;" edge="1" parent="1" source="FfVrsh1gVAjEYy1d9AUI-99" target="FfVrsh1gVAjEYy1d9AUI-103">
          <mxGeometry width="50" height="50" relative="1" as="geometry">
            <mxPoint x="1047.5" y="470" as="sourcePoint" />
            <mxPoint x="1097.5" y="420" as="targetPoint" />
          </mxGeometry>
        </mxCell>
        <mxCell id="FfVrsh1gVAjEYy1d9AUI-107" value="" style="endArrow=none;html=1;rounded=0;exitX=0.954;exitY=0.42;exitDx=0;exitDy=0;exitPerimeter=0;entryX=0.008;entryY=0.586;entryDx=0;entryDy=0;entryPerimeter=0;" edge="1" parent="1" source="FfVrsh1gVAjEYy1d9AUI-100" target="FfVrsh1gVAjEYy1d9AUI-104">
          <mxGeometry width="50" height="50" relative="1" as="geometry">
            <mxPoint x="1047.5" y="470" as="sourcePoint" />
            <mxPoint x="1097.5" y="420" as="targetPoint" />
          </mxGeometry>
        </mxCell>
        <mxCell id="FfVrsh1gVAjEYy1d9AUI-108" value="" style="endArrow=none;html=1;rounded=0;exitX=0.929;exitY=0.771;exitDx=0;exitDy=0;exitPerimeter=0;entryX=0.057;entryY=0.614;entryDx=0;entryDy=0;entryPerimeter=0;" edge="1" parent="1" source="FfVrsh1gVAjEYy1d9AUI-99" target="FfVrsh1gVAjEYy1d9AUI-104">
          <mxGeometry width="50" height="50" relative="1" as="geometry">
            <mxPoint x="1047.5" y="470" as="sourcePoint" />
            <mxPoint x="1097.5" y="420" as="targetPoint" />
          </mxGeometry>
        </mxCell>
        <mxCell id="FfVrsh1gVAjEYy1d9AUI-109" value="" style="html=1;verticalAlign=bottom;labelBackgroundColor=none;endArrow=open;endFill=0;dashed=1;rounded=0;entryX=0;entryY=0;entryDx=0;entryDy=0;" edge="1" parent="1" source="FfVrsh1gVAjEYy1d9AUI-103" target="FfVrsh1gVAjEYy1d9AUI-105">
          <mxGeometry width="160" relative="1" as="geometry">
            <mxPoint x="997.5" y="450" as="sourcePoint" />
            <mxPoint x="1157.5" y="450" as="targetPoint" />
          </mxGeometry>
        </mxCell>
        <mxCell id="FfVrsh1gVAjEYy1d9AUI-110" value="" style="html=1;verticalAlign=bottom;labelBackgroundColor=none;endArrow=open;endFill=0;dashed=1;rounded=0;entryX=-0.026;entryY=0.679;entryDx=0;entryDy=0;exitX=0.985;exitY=0.496;exitDx=0;exitDy=0;exitPerimeter=0;entryPerimeter=0;" edge="1" parent="1" source="FfVrsh1gVAjEYy1d9AUI-104" target="FfVrsh1gVAjEYy1d9AUI-105">
          <mxGeometry width="160" relative="1" as="geometry">
            <mxPoint x="1175.5" y="573" as="sourcePoint" />
            <mxPoint x="1257.5" y="605" as="targetPoint" />
          </mxGeometry>
        </mxCell>
        <mxCell id="FfVrsh1gVAjEYy1d9AUI-112" value="интерфейс&amp;nbsp;&lt;div&gt;&lt;span style=&quot;text-wrap: nowrap;&quot;&gt;отзывов о&lt;/span&gt;&lt;br&gt;&lt;div&gt;&lt;span style=&quot;text-wrap: nowrap;&quot;&gt;заказах&lt;/span&gt;&lt;/div&gt;&lt;/div&gt;" style="shape=umlBoundary;whiteSpace=wrap;html=1;" vertex="1" parent="1">
          <mxGeometry x="930" y="340" width="100" height="80" as="geometry" />
        </mxCell>
        <mxCell id="FfVrsh1gVAjEYy1d9AUI-113" value="" style="endArrow=none;html=1;rounded=0;exitX=1;exitY=0.3333333333333333;exitDx=0;exitDy=0;exitPerimeter=0;entryX=-0.02;entryY=0.525;entryDx=0;entryDy=0;entryPerimeter=0;" edge="1" parent="1" source="FfVrsh1gVAjEYy1d9AUI-80" target="FfVrsh1gVAjEYy1d9AUI-112">
          <mxGeometry width="50" height="50" relative="1" as="geometry">
            <mxPoint x="835" y="380" as="sourcePoint" />
            <mxPoint x="1090" y="400" as="targetPoint" />
          </mxGeometry>
        </mxCell>
        <mxCell id="FfVrsh1gVAjEYy1d9AUI-115" value="Менеджер по продажам" style="ellipse;shape=umlControl;whiteSpace=wrap;html=1;" vertex="1" parent="1">
          <mxGeometry x="1097" y="270" width="70" height="80" as="geometry" />
        </mxCell>
        <mxCell id="FfVrsh1gVAjEYy1d9AUI-116" value="отзыв о заказе" style="ellipse;shape=umlEntity;whiteSpace=wrap;html=1;" vertex="1" parent="1">
          <mxGeometry x="1270" y="340" width="70" height="70" as="geometry" />
        </mxCell>
        <mxCell id="FfVrsh1gVAjEYy1d9AUI-117" value="" style="endArrow=none;html=1;rounded=0;exitX=0.94;exitY=0.275;exitDx=0;exitDy=0;exitPerimeter=0;entryX=0.086;entryY=0.725;entryDx=0;entryDy=0;entryPerimeter=0;" edge="1" parent="1" source="FfVrsh1gVAjEYy1d9AUI-112" target="FfVrsh1gVAjEYy1d9AUI-115">
          <mxGeometry width="50" height="50" relative="1" as="geometry">
            <mxPoint x="1090" y="450" as="sourcePoint" />
            <mxPoint x="1140" y="400" as="targetPoint" />
          </mxGeometry>
        </mxCell>
        <mxCell id="FfVrsh1gVAjEYy1d9AUI-118" value="" style="endArrow=none;html=1;rounded=0;exitX=0.98;exitY=0.725;exitDx=0;exitDy=0;exitPerimeter=0;entryX=0.24;entryY=0.221;entryDx=0;entryDy=0;entryPerimeter=0;" edge="1" parent="1" source="FfVrsh1gVAjEYy1d9AUI-112" target="FfVrsh1gVAjEYy1d9AUI-103">
          <mxGeometry width="50" height="50" relative="1" as="geometry">
            <mxPoint x="1034" y="372" as="sourcePoint" />
            <mxPoint x="1105" y="474" as="targetPoint" />
          </mxGeometry>
        </mxCell>
        <mxCell id="FfVrsh1gVAjEYy1d9AUI-119" value="" style="html=1;verticalAlign=bottom;labelBackgroundColor=none;endArrow=open;endFill=0;dashed=1;rounded=0;entryX=0.029;entryY=0.271;entryDx=0;entryDy=0;exitX=1;exitY=0.638;exitDx=0;exitDy=0;exitPerimeter=0;entryPerimeter=0;" edge="1" parent="1" source="FfVrsh1gVAjEYy1d9AUI-115" target="FfVrsh1gVAjEYy1d9AUI-116">
          <mxGeometry width="160" relative="1" as="geometry">
            <mxPoint x="1230" y="230" as="sourcePoint" />
            <mxPoint x="1316" y="191" as="targetPoint" />
          </mxGeometry>
        </mxCell>
        <mxCell id="FfVrsh1gVAjEYy1d9AUI-120" value="" style="html=1;verticalAlign=bottom;labelBackgroundColor=none;endArrow=open;endFill=0;dashed=1;rounded=0;entryX=0;entryY=0.714;entryDx=0;entryDy=0;exitX=0.845;exitY=0.197;exitDx=0;exitDy=0;exitPerimeter=0;entryPerimeter=0;" edge="1" parent="1" source="FfVrsh1gVAjEYy1d9AUI-103" target="FfVrsh1gVAjEYy1d9AUI-116">
          <mxGeometry width="160" relative="1" as="geometry">
            <mxPoint x="1163.0099999999998" y="452" as="sourcePoint" />
            <mxPoint x="1282" y="369" as="targetPoint" />
          </mxGeometry>
        </mxCell>
        <mxCell id="FfVrsh1gVAjEYy1d9AUI-122" value="интерфейс&amp;nbsp;&lt;div&gt;&lt;span style=&quot;text-wrap: nowrap;&quot;&gt;Отслеживание&amp;nbsp;&lt;/span&gt;&lt;div&gt;&lt;span style=&quot;text-wrap: nowrap;&quot;&gt;заказа&lt;/span&gt;&lt;/div&gt;&lt;/div&gt;" style="shape=umlBoundary;whiteSpace=wrap;html=1;" vertex="1" parent="1">
          <mxGeometry x="900" y="800" width="100" height="80" as="geometry" />
        </mxCell>
        <mxCell id="FfVrsh1gVAjEYy1d9AUI-123" value="" style="endArrow=none;html=1;rounded=0;exitX=1;exitY=0.3333333333333333;exitDx=0;exitDy=0;exitPerimeter=0;entryX=-0.02;entryY=0.525;entryDx=0;entryDy=0;entryPerimeter=0;" edge="1" parent="1" source="FfVrsh1gVAjEYy1d9AUI-80" target="FfVrsh1gVAjEYy1d9AUI-122">
          <mxGeometry width="50" height="50" relative="1" as="geometry">
            <mxPoint x="805" y="840" as="sourcePoint" />
            <mxPoint x="1060" y="860" as="targetPoint" />
          </mxGeometry>
        </mxCell>
        <mxCell id="FfVrsh1gVAjEYy1d9AUI-124" value="Менеджер по доставке" style="ellipse;shape=umlControl;whiteSpace=wrap;html=1;" vertex="1" parent="1">
          <mxGeometry x="1090" y="770" width="70" height="80" as="geometry" />
        </mxCell>
        <mxCell id="FfVrsh1gVAjEYy1d9AUI-128" value="" style="endArrow=none;html=1;rounded=0;exitX=1.028;exitY=0.394;exitDx=0;exitDy=0;exitPerimeter=0;entryX=0.018;entryY=0.71;entryDx=0;entryDy=0;entryPerimeter=0;" edge="1" parent="1" source="FfVrsh1gVAjEYy1d9AUI-122" target="FfVrsh1gVAjEYy1d9AUI-124">
          <mxGeometry width="50" height="50" relative="1" as="geometry">
            <mxPoint x="1004" y="832" as="sourcePoint" />
            <mxPoint x="1083" y="798" as="targetPoint" />
          </mxGeometry>
        </mxCell>
        <mxCell id="FfVrsh1gVAjEYy1d9AUI-130" value="" style="html=1;verticalAlign=bottom;labelBackgroundColor=none;endArrow=open;endFill=0;dashed=1;rounded=0;entryX=0.297;entryY=0.988;entryDx=0;entryDy=0;exitX=0.943;exitY=0.4;exitDx=0;exitDy=0;exitPerimeter=0;entryPerimeter=0;" edge="1" parent="1" source="FfVrsh1gVAjEYy1d9AUI-124" target="FfVrsh1gVAjEYy1d9AUI-105">
          <mxGeometry width="160" relative="1" as="geometry">
            <mxPoint x="1147" y="791" as="sourcePoint" />
            <mxPoint x="1300" y="779.98" as="targetPoint" />
          </mxGeometry>
        </mxCell>
        <mxCell id="FfVrsh1gVAjEYy1d9AUI-131" value="отзыв о заказе" style="ellipse;whiteSpace=wrap;html=1;" vertex="1" parent="1">
          <mxGeometry x="-315" y="-625" width="100" height="60" as="geometry" />
        </mxCell>
        <mxCell id="FfVrsh1gVAjEYy1d9AUI-132" value="интерфейс&amp;nbsp;&lt;div&gt;&lt;span style=&quot;text-wrap: nowrap;&quot;&gt;отзывов о&lt;/span&gt;&lt;br&gt;&lt;div&gt;&lt;span style=&quot;text-wrap: nowrap;&quot;&gt;заказах&lt;/span&gt;&lt;/div&gt;&lt;/div&gt;" style="shape=umlBoundary;whiteSpace=wrap;html=1;" vertex="1" parent="1">
          <mxGeometry x="-560" y="-485" width="100" height="80" as="geometry" />
        </mxCell>
        <mxCell id="FfVrsh1gVAjEYy1d9AUI-133" value="менеджер&amp;nbsp;&lt;div&gt;заказов&lt;/div&gt;" style="ellipse;shape=umlControl;whiteSpace=wrap;html=1;" vertex="1" parent="1">
          <mxGeometry x="-250" y="-485" width="70" height="80" as="geometry" />
        </mxCell>
        <mxCell id="FfVrsh1gVAjEYy1d9AUI-134" value="Менеджер по продажам" style="ellipse;shape=umlControl;whiteSpace=wrap;html=1;" vertex="1" parent="1">
          <mxGeometry x="-410" y="-485" width="70" height="80" as="geometry" />
        </mxCell>
        <mxCell id="FfVrsh1gVAjEYy1d9AUI-135" value="" style="endArrow=none;dashed=1;html=1;rounded=0;entryX=0.5;entryY=1;entryDx=0;entryDy=0;exitX=0.79;exitY=0.088;exitDx=0;exitDy=0;exitPerimeter=0;" edge="1" parent="1" source="FfVrsh1gVAjEYy1d9AUI-132" target="FfVrsh1gVAjEYy1d9AUI-131">
          <mxGeometry width="50" height="50" relative="1" as="geometry">
            <mxPoint x="-270" y="-325" as="sourcePoint" />
            <mxPoint x="-220" y="-375" as="targetPoint" />
          </mxGeometry>
        </mxCell>
        <mxCell id="FfVrsh1gVAjEYy1d9AUI-136" value="" style="endArrow=none;dashed=1;html=1;rounded=0;entryX=0.5;entryY=1;entryDx=0;entryDy=0;exitX=0.671;exitY=0.125;exitDx=0;exitDy=0;exitPerimeter=0;" edge="1" parent="1" source="FfVrsh1gVAjEYy1d9AUI-134" target="FfVrsh1gVAjEYy1d9AUI-131">
          <mxGeometry width="50" height="50" relative="1" as="geometry">
            <mxPoint x="-367" y="-476" as="sourcePoint" />
            <mxPoint x="-255" y="-555" as="targetPoint" />
          </mxGeometry>
        </mxCell>
        <mxCell id="FfVrsh1gVAjEYy1d9AUI-137" value="" style="endArrow=none;dashed=1;html=1;rounded=0;entryX=0.5;entryY=1;entryDx=0;entryDy=0;exitX=0.365;exitY=0.096;exitDx=0;exitDy=0;exitPerimeter=0;" edge="1" parent="1" source="FfVrsh1gVAjEYy1d9AUI-133" target="FfVrsh1gVAjEYy1d9AUI-131">
          <mxGeometry width="50" height="50" relative="1" as="geometry">
            <mxPoint x="-255" y="-480" as="sourcePoint" />
            <mxPoint x="-255" y="-555" as="targetPoint" />
          </mxGeometry>
        </mxCell>
        <mxCell id="FfVrsh1gVAjEYy1d9AUI-138" value="отзыв о заказе" style="ellipse;shape=umlEntity;whiteSpace=wrap;html=1;" vertex="1" parent="1">
          <mxGeometry x="-100" y="-485" width="70" height="70" as="geometry" />
        </mxCell>
        <mxCell id="FfVrsh1gVAjEYy1d9AUI-139" value="" style="endArrow=none;dashed=1;html=1;rounded=0;entryX=0.5;entryY=1;entryDx=0;entryDy=0;exitX=0;exitY=0;exitDx=0;exitDy=0;" edge="1" parent="1" source="FfVrsh1gVAjEYy1d9AUI-138" target="FfVrsh1gVAjEYy1d9AUI-131">
          <mxGeometry width="50" height="50" relative="1" as="geometry">
            <mxPoint x="-254" y="-462" as="sourcePoint" />
            <mxPoint x="-255" y="-555" as="targetPoint" />
          </mxGeometry>
        </mxCell>
        <mxCell id="FfVrsh1gVAjEYy1d9AUI-140" value="Клиент" style="shape=umlActor;verticalLabelPosition=bottom;verticalAlign=top;html=1;outlineConnect=0;" vertex="1" parent="1">
          <mxGeometry x="-570" y="-220" width="30" height="60" as="geometry" />
        </mxCell>
        <mxCell id="FfVrsh1gVAjEYy1d9AUI-141" value="интерфейс&amp;nbsp;&lt;div&gt;&lt;span style=&quot;text-wrap: nowrap;&quot;&gt;отзывов о&lt;/span&gt;&lt;br&gt;&lt;div&gt;&lt;span style=&quot;text-wrap: nowrap;&quot;&gt;заказах&lt;/span&gt;&lt;/div&gt;&lt;/div&gt;" style="shape=umlBoundary;whiteSpace=wrap;html=1;" vertex="1" parent="1">
          <mxGeometry x="-460" y="-230" width="100" height="80" as="geometry" />
        </mxCell>
        <mxCell id="FfVrsh1gVAjEYy1d9AUI-142" value="" style="endArrow=none;html=1;rounded=0;exitX=0.5;exitY=0.5;exitDx=0;exitDy=0;exitPerimeter=0;entryX=-0.02;entryY=0.525;entryDx=0;entryDy=0;entryPerimeter=0;" edge="1" parent="1" source="FfVrsh1gVAjEYy1d9AUI-140" target="FfVrsh1gVAjEYy1d9AUI-141">
          <mxGeometry width="50" height="50" relative="1" as="geometry">
            <mxPoint x="-350" y="-120" as="sourcePoint" />
            <mxPoint x="-300" y="-170" as="targetPoint" />
          </mxGeometry>
        </mxCell>
        <mxCell id="FfVrsh1gVAjEYy1d9AUI-143" value="менеджер&amp;nbsp;&lt;div&gt;заказов&lt;/div&gt;" style="ellipse;shape=umlControl;whiteSpace=wrap;html=1;" vertex="1" parent="1">
          <mxGeometry x="-293" y="-150" width="70" height="80" as="geometry" />
        </mxCell>
        <mxCell id="FfVrsh1gVAjEYy1d9AUI-144" value="Менеджер по продажам" style="ellipse;shape=umlControl;whiteSpace=wrap;html=1;" vertex="1" parent="1">
          <mxGeometry x="-293" y="-300" width="70" height="80" as="geometry" />
        </mxCell>
        <mxCell id="FfVrsh1gVAjEYy1d9AUI-145" value="отзыв о заказе" style="ellipse;shape=umlEntity;whiteSpace=wrap;html=1;" vertex="1" parent="1">
          <mxGeometry x="-120" y="-230" width="70" height="70" as="geometry" />
        </mxCell>
        <mxCell id="FfVrsh1gVAjEYy1d9AUI-146" value="" style="endArrow=none;html=1;rounded=0;exitX=0.94;exitY=0.275;exitDx=0;exitDy=0;exitPerimeter=0;entryX=0.086;entryY=0.725;entryDx=0;entryDy=0;entryPerimeter=0;" edge="1" parent="1" source="FfVrsh1gVAjEYy1d9AUI-141" target="FfVrsh1gVAjEYy1d9AUI-144">
          <mxGeometry width="50" height="50" relative="1" as="geometry">
            <mxPoint x="-300" y="-120" as="sourcePoint" />
            <mxPoint x="-250" y="-170" as="targetPoint" />
          </mxGeometry>
        </mxCell>
        <mxCell id="FfVrsh1gVAjEYy1d9AUI-147" value="" style="endArrow=none;html=1;rounded=0;exitX=0.98;exitY=0.725;exitDx=0;exitDy=0;exitPerimeter=0;entryX=0.014;entryY=0.338;entryDx=0;entryDy=0;entryPerimeter=0;" edge="1" parent="1" source="FfVrsh1gVAjEYy1d9AUI-141" target="FfVrsh1gVAjEYy1d9AUI-143">
          <mxGeometry width="50" height="50" relative="1" as="geometry">
            <mxPoint x="-356" y="-198" as="sourcePoint" />
            <mxPoint x="-277" y="-232" as="targetPoint" />
          </mxGeometry>
        </mxCell>
        <mxCell id="FfVrsh1gVAjEYy1d9AUI-148" value="" style="html=1;verticalAlign=bottom;labelBackgroundColor=none;endArrow=open;endFill=0;dashed=1;rounded=0;entryX=0.029;entryY=0.271;entryDx=0;entryDy=0;exitX=1;exitY=0.638;exitDx=0;exitDy=0;exitPerimeter=0;entryPerimeter=0;" edge="1" parent="1" source="FfVrsh1gVAjEYy1d9AUI-144" target="FfVrsh1gVAjEYy1d9AUI-145">
          <mxGeometry width="160" relative="1" as="geometry">
            <mxPoint x="-160" y="-340" as="sourcePoint" />
            <mxPoint x="-74" y="-379" as="targetPoint" />
          </mxGeometry>
        </mxCell>
        <mxCell id="FfVrsh1gVAjEYy1d9AUI-149" value="" style="html=1;verticalAlign=bottom;labelBackgroundColor=none;endArrow=open;endFill=0;dashed=1;rounded=0;entryX=0;entryY=0.714;entryDx=0;entryDy=0;exitX=0.943;exitY=0.4;exitDx=0;exitDy=0;exitPerimeter=0;entryPerimeter=0;" edge="1" parent="1" source="FfVrsh1gVAjEYy1d9AUI-143" target="FfVrsh1gVAjEYy1d9AUI-145">
          <mxGeometry width="160" relative="1" as="geometry">
            <mxPoint x="-213" y="-239" as="sourcePoint" />
            <mxPoint x="-108" y="-201" as="targetPoint" />
          </mxGeometry>
        </mxCell>
      </root>
    </mxGraphModel>
  </diagram>
  <diagram id="jMWk8otJDeQOUbQsAzTi" name="Page-2">
    <mxGraphModel dx="3686" dy="2935" grid="1" gridSize="10" guides="1" tooltips="1" connect="1" arrows="1" fold="1" page="1" pageScale="1" pageWidth="827" pageHeight="1169" math="0" shadow="0">
      <root>
        <mxCell id="0" />
        <mxCell id="1" parent="0" />
        <mxCell id="E8207VT9wyRGuMZqVeoe-2" value="" style="shape=umlLifeline;perimeter=lifelinePerimeter;whiteSpace=wrap;html=1;container=1;dropTarget=0;collapsible=0;recursiveResize=0;outlineConnect=0;portConstraint=eastwest;newEdgeStyle={&quot;curved&quot;:0,&quot;rounded&quot;:0};participant=umlActor;" vertex="1" parent="1">
          <mxGeometry x="10" y="-870" width="20" height="830" as="geometry" />
        </mxCell>
        <mxCell id="E8207VT9wyRGuMZqVeoe-3" value=":&lt;span style=&quot;font-size: medium; text-align: left;&quot;&gt;Управление заказами&lt;/span&gt;" style="shape=umlLifeline;perimeter=lifelinePerimeter;whiteSpace=wrap;html=1;container=1;dropTarget=0;collapsible=0;recursiveResize=0;outlineConnect=0;portConstraint=eastwest;newEdgeStyle={&quot;curved&quot;:0,&quot;rounded&quot;:0};" vertex="1" parent="1">
          <mxGeometry x="120" y="-870" width="100" height="830" as="geometry" />
        </mxCell>
        <mxCell id="E8207VT9wyRGuMZqVeoe-4" value=":&lt;span style=&quot;font-size: medium; text-align: left;&quot;&gt;Поддержка клиентов&lt;/span&gt;" style="shape=umlLifeline;perimeter=lifelinePerimeter;whiteSpace=wrap;html=1;container=1;dropTarget=0;collapsible=0;recursiveResize=0;outlineConnect=0;portConstraint=eastwest;newEdgeStyle={&quot;curved&quot;:0,&quot;rounded&quot;:0};" vertex="1" parent="1">
          <mxGeometry x="720" y="-870" width="100" height="830" as="geometry" />
        </mxCell>
        <mxCell id="E8207VT9wyRGuMZqVeoe-5" value=":&lt;span style=&quot;font-size: medium; text-align: left;&quot;&gt;Логистика и доставка&lt;/span&gt;" style="shape=umlLifeline;perimeter=lifelinePerimeter;whiteSpace=wrap;html=1;container=1;dropTarget=0;collapsible=0;recursiveResize=0;outlineConnect=0;portConstraint=eastwest;newEdgeStyle={&quot;curved&quot;:0,&quot;rounded&quot;:0};" vertex="1" parent="1">
          <mxGeometry x="520" y="-870" width="100" height="830" as="geometry" />
        </mxCell>
        <mxCell id="E8207VT9wyRGuMZqVeoe-6" value=":&lt;span style=&quot;font-size: medium; text-align: left;&quot;&gt;Обработка платежей&lt;/span&gt;" style="shape=umlLifeline;perimeter=lifelinePerimeter;whiteSpace=wrap;html=1;container=1;dropTarget=0;collapsible=0;recursiveResize=0;outlineConnect=0;portConstraint=eastwest;newEdgeStyle={&quot;curved&quot;:0,&quot;rounded&quot;:0};" vertex="1" parent="1">
          <mxGeometry x="320" y="-870" width="100" height="830" as="geometry" />
        </mxCell>
        <mxCell id="E8207VT9wyRGuMZqVeoe-11" value="" style="endArrow=classic;html=1;rounded=0;" edge="1" parent="1" target="E8207VT9wyRGuMZqVeoe-3">
          <mxGeometry width="50" height="50" relative="1" as="geometry">
            <mxPoint x="169.78571428571422" y="-750" as="sourcePoint" />
            <mxPoint x="169.78571428571422" y="-729.9999999999998" as="targetPoint" />
            <Array as="points">
              <mxPoint x="210" y="-750" />
              <mxPoint x="210" y="-730" />
            </Array>
          </mxGeometry>
        </mxCell>
        <mxCell id="E8207VT9wyRGuMZqVeoe-13" value="&lt;span style=&quot;text-align: left;&quot;&gt;&lt;font style=&quot;font-size: 12px;&quot;&gt;Проверить наличие товара&lt;/font&gt;&lt;/span&gt;" style="text;html=1;align=center;verticalAlign=middle;whiteSpace=wrap;rounded=0;" vertex="1" parent="1">
          <mxGeometry x="210" y="-760" width="160" height="30" as="geometry" />
        </mxCell>
        <mxCell id="E8207VT9wyRGuMZqVeoe-14" value="&lt;span style=&quot;text-align: left;&quot;&gt;&lt;font style=&quot;font-size: 12px;&quot;&gt;Оформить заказ&lt;/font&gt;&lt;/span&gt;" style="text;html=1;align=center;verticalAlign=middle;whiteSpace=wrap;rounded=0;" vertex="1" parent="1">
          <mxGeometry x="20" y="-800" width="130" height="30" as="geometry" />
        </mxCell>
        <mxCell id="E8207VT9wyRGuMZqVeoe-15" value="" style="endArrow=classic;html=1;rounded=0;" edge="1" parent="1">
          <mxGeometry width="50" height="50" relative="1" as="geometry">
            <mxPoint x="20.000434782608522" y="-770.0000000000002" as="sourcePoint" />
            <mxPoint x="169.87" y="-770.0000000000002" as="targetPoint" />
          </mxGeometry>
        </mxCell>
        <mxCell id="E8207VT9wyRGuMZqVeoe-16" value="" style="endArrow=classic;html=1;rounded=0;" edge="1" parent="1">
          <mxGeometry width="50" height="50" relative="1" as="geometry">
            <mxPoint x="169.63043478260852" y="-690.0000000000002" as="sourcePoint" />
            <mxPoint x="369.5" y="-690.0000000000002" as="targetPoint" />
          </mxGeometry>
        </mxCell>
        <mxCell id="E8207VT9wyRGuMZqVeoe-17" value="&lt;span style=&quot;text-align: left;&quot;&gt;&lt;font style=&quot;font-size: 12px;&quot;&gt;Отправить данные для оплаты&lt;/font&gt;&lt;/span&gt;" style="text;html=1;align=center;verticalAlign=middle;whiteSpace=wrap;rounded=0;" vertex="1" parent="1">
          <mxGeometry x="160" y="-720" width="210" height="30" as="geometry" />
        </mxCell>
        <mxCell id="E8207VT9wyRGuMZqVeoe-18" value="" style="endArrow=classic;html=1;rounded=0;" edge="1" parent="1" source="E8207VT9wyRGuMZqVeoe-6">
          <mxGeometry width="50" height="50" relative="1" as="geometry">
            <mxPoint x="364.86000000000047" y="-650" as="sourcePoint" />
            <mxPoint x="170" y="-650" as="targetPoint" />
          </mxGeometry>
        </mxCell>
        <mxCell id="E8207VT9wyRGuMZqVeoe-20" value="" style="endArrow=classic;html=1;rounded=0;" edge="1" parent="1">
          <mxGeometry width="50" height="50" relative="1" as="geometry">
            <mxPoint x="170" y="-560" as="sourcePoint" />
            <mxPoint x="570" y="-560" as="targetPoint" />
          </mxGeometry>
        </mxCell>
        <mxCell id="E8207VT9wyRGuMZqVeoe-21" value="" style="endArrow=classic;html=1;rounded=0;" edge="1" parent="1">
          <mxGeometry width="50" height="50" relative="1" as="geometry">
            <mxPoint x="569.9957142857143" y="-520" as="sourcePoint" />
            <mxPoint x="570.21" y="-500" as="targetPoint" />
            <Array as="points">
              <mxPoint x="610.21" y="-520" />
              <mxPoint x="610.21" y="-500" />
            </Array>
          </mxGeometry>
        </mxCell>
        <mxCell id="E8207VT9wyRGuMZqVeoe-22" value="" style="endArrow=classic;html=1;rounded=0;" edge="1" parent="1">
          <mxGeometry width="50" height="50" relative="1" as="geometry">
            <mxPoint x="569.9957142857143" y="-480" as="sourcePoint" />
            <mxPoint x="570.21" y="-460" as="targetPoint" />
            <Array as="points">
              <mxPoint x="610.21" y="-480" />
              <mxPoint x="610.21" y="-460" />
            </Array>
          </mxGeometry>
        </mxCell>
        <mxCell id="E8207VT9wyRGuMZqVeoe-23" value="" style="endArrow=classic;html=1;rounded=0;" edge="1" parent="1">
          <mxGeometry width="50" height="50" relative="1" as="geometry">
            <mxPoint x="569.9957142857143" y="-440" as="sourcePoint" />
            <mxPoint x="570.21" y="-420" as="targetPoint" />
            <Array as="points">
              <mxPoint x="610.21" y="-440" />
              <mxPoint x="610.21" y="-420" />
            </Array>
          </mxGeometry>
        </mxCell>
        <mxCell id="E8207VT9wyRGuMZqVeoe-26" value="" style="html=1;verticalAlign=bottom;labelBackgroundColor=none;endArrow=block;endFill=1;dashed=1;rounded=0;" edge="1" parent="1">
          <mxGeometry width="160" relative="1" as="geometry">
            <mxPoint x="170" y="-610" as="sourcePoint" />
            <mxPoint x="20" y="-610" as="targetPoint" />
          </mxGeometry>
        </mxCell>
        <mxCell id="E8207VT9wyRGuMZqVeoe-27" value="" style="html=1;verticalAlign=bottom;labelBackgroundColor=none;endArrow=block;endFill=1;dashed=1;rounded=0;" edge="1" parent="1" source="E8207VT9wyRGuMZqVeoe-5">
          <mxGeometry width="160" relative="1" as="geometry">
            <mxPoint x="170" y="-390" as="sourcePoint" />
            <mxPoint x="20" y="-390" as="targetPoint" />
          </mxGeometry>
        </mxCell>
        <mxCell id="E8207VT9wyRGuMZqVeoe-28" value="" style="endArrow=classic;html=1;rounded=0;" edge="1" parent="1" target="E8207VT9wyRGuMZqVeoe-4">
          <mxGeometry width="50" height="50" relative="1" as="geometry">
            <mxPoint x="20" y="-300" as="sourcePoint" />
            <mxPoint x="420" y="-300" as="targetPoint" />
          </mxGeometry>
        </mxCell>
        <mxCell id="E8207VT9wyRGuMZqVeoe-29" value="" style="endArrow=classic;html=1;rounded=0;" edge="1" parent="1">
          <mxGeometry width="50" height="50" relative="1" as="geometry">
            <mxPoint x="769.9957142857143" y="-270" as="sourcePoint" />
            <mxPoint x="770.21" y="-250" as="targetPoint" />
            <Array as="points">
              <mxPoint x="810.21" y="-270" />
              <mxPoint x="810.21" y="-250" />
            </Array>
          </mxGeometry>
        </mxCell>
        <mxCell id="E8207VT9wyRGuMZqVeoe-30" value="" style="endArrow=classic;html=1;rounded=0;" edge="1" parent="1">
          <mxGeometry width="50" height="50" relative="1" as="geometry">
            <mxPoint x="770" y="-210" as="sourcePoint" />
            <mxPoint x="570" y="-210" as="targetPoint" />
          </mxGeometry>
        </mxCell>
        <mxCell id="E8207VT9wyRGuMZqVeoe-31" value="" style="html=1;verticalAlign=bottom;labelBackgroundColor=none;endArrow=block;endFill=1;dashed=1;rounded=0;" edge="1" parent="1" target="E8207VT9wyRGuMZqVeoe-2">
          <mxGeometry width="160" relative="1" as="geometry">
            <mxPoint x="770" y="-170" as="sourcePoint" />
            <mxPoint x="220" y="-170" as="targetPoint" />
          </mxGeometry>
        </mxCell>
        <mxCell id="E8207VT9wyRGuMZqVeoe-32" value="" style="html=1;verticalAlign=bottom;labelBackgroundColor=none;endArrow=block;endFill=1;dashed=1;rounded=0;" edge="1" parent="1">
          <mxGeometry width="160" relative="1" as="geometry">
            <mxPoint x="770" y="-131" as="sourcePoint" />
            <mxPoint x="20" y="-131" as="targetPoint" />
          </mxGeometry>
        </mxCell>
        <mxCell id="E8207VT9wyRGuMZqVeoe-33" value="&lt;font style=&quot;&quot;&gt;&lt;font style=&quot;font-size: 12px;&quot;&gt;&lt;br&gt;&lt;span style=&quot;color: rgb(0, 0, 0); font-family: Helvetica; font-style: normal; font-variant-ligatures: normal; font-variant-caps: normal; font-weight: 400; letter-spacing: normal; orphans: 2; text-align: left; text-indent: 0px; text-transform: none; widows: 2; word-spacing: 0px; -webkit-text-stroke-width: 0px; white-space: normal; background-color: rgb(251, 251, 251); text-decoration-thickness: initial; text-decoration-style: initial; text-decoration-color: initial; float: none; display: inline !important;&quot;&gt;Подтвердить оплату&lt;/span&gt;&lt;/font&gt;&lt;br&gt;&lt;/font&gt;" style="text;html=1;align=center;verticalAlign=middle;whiteSpace=wrap;rounded=0;" vertex="1" parent="1">
          <mxGeometry x="160" y="-680" width="210" height="30" as="geometry" />
        </mxCell>
        <mxCell id="E8207VT9wyRGuMZqVeoe-34" value="&lt;span style=&quot;text-align: left;&quot;&gt;&lt;font style=&quot;font-size: 12px;&quot;&gt;Подтверждение заказа&lt;/font&gt;&lt;/span&gt;" style="text;html=1;align=center;verticalAlign=middle;whiteSpace=wrap;rounded=0;" vertex="1" parent="1">
          <mxGeometry x="20" y="-630" width="160" height="30" as="geometry" />
        </mxCell>
        <mxCell id="E8207VT9wyRGuMZqVeoe-35" value="&lt;span style=&quot;text-align: left;&quot;&gt;&lt;font style=&quot;font-size: 12px;&quot;&gt;Отправить данные о заказе&lt;/font&gt;&lt;/span&gt;" style="text;html=1;align=center;verticalAlign=middle;whiteSpace=wrap;rounded=0;" vertex="1" parent="1">
          <mxGeometry x="260" y="-590" width="200" height="30" as="geometry" />
        </mxCell>
        <mxCell id="E8207VT9wyRGuMZqVeoe-36" value="&lt;span style=&quot;text-align: left;&quot;&gt;&lt;font style=&quot;font-size: 12px;&quot;&gt;Организовать время доставки&lt;/font&gt;&lt;/span&gt;" style="text;html=1;align=center;verticalAlign=middle;whiteSpace=wrap;rounded=0;" vertex="1" parent="1">
          <mxGeometry x="597" y="-520" width="200" height="30" as="geometry" />
        </mxCell>
        <mxCell id="E8207VT9wyRGuMZqVeoe-37" value="&lt;span style=&quot;text-align: left;&quot;&gt;&lt;font style=&quot;font-size: 12px;&quot;&gt;Отправка заказа&lt;/font&gt;&lt;/span&gt;" style="text;html=1;align=center;verticalAlign=middle;whiteSpace=wrap;rounded=0;" vertex="1" parent="1">
          <mxGeometry x="590" y="-480" width="140" height="30" as="geometry" />
        </mxCell>
        <mxCell id="E8207VT9wyRGuMZqVeoe-38" value="&lt;span style=&quot;text-align: left;&quot;&gt;&lt;font style=&quot;font-size: 12px;&quot;&gt;Обновление статуса доставки&lt;/font&gt;&lt;/span&gt;" style="text;html=1;align=center;verticalAlign=middle;whiteSpace=wrap;rounded=0;" vertex="1" parent="1">
          <mxGeometry x="602" y="-440" width="190" height="30" as="geometry" />
        </mxCell>
        <mxCell id="E8207VT9wyRGuMZqVeoe-40" value="&lt;span style=&quot;text-align: left;&quot;&gt;&lt;font style=&quot;font-size: 12px;&quot;&gt;Сообщить статус доставки&lt;/font&gt;&lt;/span&gt;" style="text;html=1;align=center;verticalAlign=middle;whiteSpace=wrap;rounded=0;" vertex="1" parent="1">
          <mxGeometry x="220" y="-420" width="190" height="30" as="geometry" />
        </mxCell>
        <mxCell id="E8207VT9wyRGuMZqVeoe-41" value="&lt;span style=&quot;text-align: left;&quot;&gt;&lt;font style=&quot;font-size: 12px;&quot;&gt;Отправить запрос/жалобу&lt;/font&gt;&lt;/span&gt;" style="text;html=1;align=center;verticalAlign=middle;whiteSpace=wrap;rounded=0;" vertex="1" parent="1">
          <mxGeometry x="280" y="-330" width="180" height="30" as="geometry" />
        </mxCell>
        <mxCell id="E8207VT9wyRGuMZqVeoe-42" value="&lt;span style=&quot;text-align: left;&quot;&gt;&lt;font style=&quot;font-size: 12px;&quot;&gt;Обработка запросов клиентов&lt;/font&gt;&lt;/span&gt;" style="text;html=1;align=center;verticalAlign=middle;whiteSpace=wrap;rounded=0;" vertex="1" parent="1">
          <mxGeometry x="810" y="-270" width="180" height="30" as="geometry" />
        </mxCell>
        <mxCell id="E8207VT9wyRGuMZqVeoe-43" value="&lt;span style=&quot;text-align: left;&quot;&gt;&lt;font style=&quot;font-size: 12px;&quot;&gt;Обработка возвратов/жалоб&lt;/font&gt;&lt;/span&gt;" style="text;html=1;align=center;verticalAlign=middle;whiteSpace=wrap;rounded=0;" vertex="1" parent="1">
          <mxGeometry x="580" y="-240" width="190" height="30" as="geometry" />
        </mxCell>
        <mxCell id="E8207VT9wyRGuMZqVeoe-44" value="&lt;span style=&quot;text-align: left;&quot;&gt;&lt;font style=&quot;font-size: 12px;&quot;&gt;Предоставление поддержки и рекомендаций&lt;/font&gt;&lt;/span&gt;" style="text;html=1;align=center;verticalAlign=middle;whiteSpace=wrap;rounded=0;" vertex="1" parent="1">
          <mxGeometry x="160" y="-200" width="430" height="30" as="geometry" />
        </mxCell>
        <mxCell id="E8207VT9wyRGuMZqVeoe-45" value="&lt;span style=&quot;text-align: left;&quot;&gt;&lt;font style=&quot;font-size: 12px;&quot;&gt;Подтверждение решения проблемы&lt;/font&gt;&lt;/span&gt;" style="text;html=1;align=center;verticalAlign=middle;whiteSpace=wrap;rounded=0;" vertex="1" parent="1">
          <mxGeometry x="195" y="-160" width="330" height="30" as="geometry" />
        </mxCell>
      </root>
    </mxGraphModel>
  </diagram>
  <diagram id="q7vw2zilmrqHzR7tp2AG" name="Page-3">
    <mxGraphModel dx="4234" dy="2405" grid="1" gridSize="10" guides="1" tooltips="1" connect="1" arrows="1" fold="1" page="1" pageScale="1" pageWidth="827" pageHeight="1169" math="0" shadow="0">
      <root>
        <mxCell id="0" />
        <mxCell id="1" parent="0" />
        <UserObject label="" plantUmlData="{&#xa;  &quot;data&quot;: &quot;@startuml\nactor Клиент\nparticipant \&quot;Управление заказами\&quot; as A1\nparticipant \&quot;Обработка платежей\&quot; as A2\nparticipant \&quot;Логистика и доставка\&quot; as A3\nparticipant \&quot;Поддержка клиентов\&quot; as A4\n\n== Процесс заказа ==\nКлиент -&gt; A1: Оформить заказ\nA1 -&gt; A1: Проверить наличие товара\nA1 -&gt; A2: Отправить данные для оплаты\nA2 -&gt; A1: Подтвердить оплату\nA1 -&gt; Клиент: Подтверждение заказа\n\n== Процесс доставки ==\nA1 -&gt; A3: Отправить данные о заказе\nA3 -&gt; A3: Организовать время доставки\nA3 -&gt; A3: Отправка заказа\nA3 -&gt; A3: Обновление статуса доставки\nA3 -&gt; Клиент: Сообщить статус доставки\n\n== Поддержка клиентов ==\nКлиент -&gt; A4: Отправить запрос/жалобу\nA4 -&gt; A4: Обработка запросов клиентов\nA4 -&gt; A3: Обработка возвратов/жалоб\nA4 -&gt; Клиент: Предоставление поддержки и рекомендаций\nA4 -&gt; Клиент: Подтверждение решения проблемы\n\n@enduml\n&quot;,&#xa;  &quot;format&quot;: &quot;svg&quot;&#xa;}" id="S__Zm3ARt8MM6DnXtygB-1">
          <mxCell style="shape=image;noLabel=1;verticalAlign=top;aspect=fixed;imageAspect=0;image=data:image/svg+xml,PD94bWwgdmVyc2lvbj0iMS4wIiBlbmNvZGluZz0idXMtYXNjaWkiIHN0YW5kYWxvbmU9Im5vIj8+PHN2ZyB4bWxucz0iaHR0cDovL3d3dy53My5vcmcvMjAwMC9zdmciIHhtbG5zOnhsaW5rPSJodHRwOi8vd3d3LnczLm9yZy8xOTk5L3hsaW5rIiBjb250ZW50U3R5bGVUeXBlPSJ0ZXh0L2NzcyIgaGVpZ2h0PSI3ODhweCIgcHJlc2VydmVBc3BlY3RSYXRpbz0ibm9uZSIgc3R5bGU9IndpZHRoOjk3MHB4O2hlaWdodDo3ODhweDtiYWNrZ3JvdW5kOiNGRkZGRkY7IiB2ZXJzaW9uPSIxLjEiIHZpZXdCb3g9IjAgMCA5NzAgNzg4IiB3aWR0aD0iOTcwcHgiIHpvb21BbmRQYW49Im1hZ25pZnkiPjxkZWZzLz48Zz48bGluZSBzdHlsZT0ic3Ryb2tlOiMxODE4MTg7c3Ryb2tlLXdpZHRoOjAuNTtzdHJva2UtZGFzaGFycmF5OjUuMCw1LjA7IiB4MT0iMzAiIHgyPSIzMCIgeTE9Ijc5Ljk4NDQiIHkyPSI3MDkuNDM3NSIvPjxsaW5lIHN0eWxlPSJzdHJva2U6IzE4MTgxODtzdHJva2Utd2lkdGg6MC41O3N0cm9rZS1kYXNoYXJyYXk6NS4wLDUuMDsiIHgxPSIxOTMiIHgyPSIxOTMiIHkxPSI3OS45ODQ0IiB5Mj0iNzA5LjQzNzUiLz48bGluZSBzdHlsZT0ic3Ryb2tlOiMxODE4MTg7c3Ryb2tlLXdpZHRoOjAuNTtzdHJva2UtZGFzaGFycmF5OjUuMCw1LjA7IiB4MT0iNDAyLjUiIHgyPSI0MDIuNSIgeTE9Ijc5Ljk4NDQiIHkyPSI3MDkuNDM3NSIvPjxsaW5lIHN0eWxlPSJzdHJva2U6IzE4MTgxODtzdHJva2Utd2lkdGg6MC41O3N0cm9rZS1kYXNoYXJyYXk6NS4wLDUuMDsiIHgxPSI1NjAuNSIgeDI9IjU2MC41IiB5MT0iNzkuOTg0NCIgeTI9IjcwOS40Mzc1Ii8+PGxpbmUgc3R5bGU9InN0cm9rZTojMTgxODE4O3N0cm9rZS13aWR0aDowLjU7c3Ryb2tlLWRhc2hhcnJheTo1LjAsNS4wOyIgeDE9Ijc2MS41IiB4Mj0iNzYxLjUiIHkxPSI3OS45ODQ0IiB5Mj0iNzA5LjQzNzUiLz48dGV4dCBmaWxsPSIjMDAwMDAwIiBmb250LWZhbWlseT0ic2Fucy1zZXJpZiIgZm9udC1zaXplPSIxNCIgbGVuZ3RoQWRqdXN0PSJzcGFjaW5nIiB0ZXh0TGVuZ3RoPSI0NCIgeD0iNSIgeT0iNzguMjM0NCI+JiMxMDUwOyYjMTA4MzsmIzEwODA7JiMxMDc3OyYjMTA4NTsmIzEwOTA7PC90ZXh0PjxlbGxpcHNlIGN4PSIzMCIgY3k9IjEzLjUiIGZpbGw9IiNFMkUyRjAiIHJ4PSI4IiByeT0iOCIgc3R5bGU9InN0cm9rZTojMTgxODE4O3N0cm9rZS13aWR0aDowLjU7Ii8+PHBhdGggZD0iTTMwLDIxLjUgTDMwLDQ4LjUgTTE3LDI5LjUgTDQzLDI5LjUgTTMwLDQ4LjUgTDE3LDYzLjUgTTMwLDQ4LjUgTDQzLDYzLjUgIiBmaWxsPSJub25lIiBzdHlsZT0ic3Ryb2tlOiMxODE4MTg7c3Ryb2tlLXdpZHRoOjAuNTsiLz48dGV4dCBmaWxsPSIjMDAwMDAwIiBmb250LWZhbWlseT0ic2Fucy1zZXJpZiIgZm9udC1zaXplPSIxNCIgbGVuZ3RoQWRqdXN0PSJzcGFjaW5nIiB0ZXh0TGVuZ3RoPSI0NCIgeD0iNSIgeT0iNzIxLjY3MTkiPiYjMTA1MDsmIzEwODM7JiMxMDgwOyYjMTA3NzsmIzEwODU7JiMxMDkwOzwvdGV4dD48ZWxsaXBzZSBjeD0iMzAiIGN5PSI3MzEuOTIxOSIgZmlsbD0iI0UyRTJGMCIgcng9IjgiIHJ5PSI4IiBzdHlsZT0ic3Ryb2tlOiMxODE4MTg7c3Ryb2tlLXdpZHRoOjAuNTsiLz48cGF0aCBkPSJNMzAsNzM5LjkyMTkgTDMwLDc2Ni45MjE5IE0xNyw3NDcuOTIxOSBMNDMsNzQ3LjkyMTkgTTMwLDc2Ni45MjE5IEwxNyw3ODEuOTIxOSBNMzAsNzY2LjkyMTkgTDQzLDc4MS45MjE5ICIgZmlsbD0ibm9uZSIgc3R5bGU9InN0cm9rZTojMTgxODE4O3N0cm9rZS13aWR0aDowLjU7Ii8+PHJlY3QgZmlsbD0iI0UyRTJGMCIgaGVpZ2h0PSIyOC45ODQ0IiByeD0iMi41IiByeT0iMi41IiBzdHlsZT0ic3Ryb2tlOiMxODE4MTg7c3Ryb2tlLXdpZHRoOjAuNTsiIHdpZHRoPSIxNDgiIHg9IjExOSIgeT0iNTAiLz48dGV4dCBmaWxsPSIjMDAwMDAwIiBmb250LWZhbWlseT0ic2Fucy1zZXJpZiIgZm9udC1zaXplPSIxNCIgbGVuZ3RoQWRqdXN0PSJzcGFjaW5nIiB0ZXh0TGVuZ3RoPSIxMzQiIHg9IjEyNiIgeT0iNzAuMjM0NCI+JiMxMDU5OyYjMTA4NzsmIzEwODg7JiMxMDcyOyYjMTA3NDsmIzEwODM7JiMxMDc3OyYjMTA4NTsmIzEwODA7JiMxMDc3OyAmIzEwNzk7JiMxMDcyOyYjMTA4MjsmIzEwNzI7JiMxMDc5OyYjMTA3MjsmIzEwODQ7JiMxMDgwOzwvdGV4dD48cmVjdCBmaWxsPSIjRTJFMkYwIiBoZWlnaHQ9IjI4Ljk4NDQiIHJ4PSIyLjUiIHJ5PSIyLjUiIHN0eWxlPSJzdHJva2U6IzE4MTgxODtzdHJva2Utd2lkdGg6MC41OyIgd2lkdGg9IjE0OCIgeD0iMTE5IiB5PSI3MDguNDM3NSIvPjx0ZXh0IGZpbGw9IiMwMDAwMDAiIGZvbnQtZmFtaWx5PSJzYW5zLXNlcmlmIiBmb250LXNpemU9IjE0IiBsZW5ndGhBZGp1c3Q9InNwYWNpbmciIHRleHRMZW5ndGg9IjEzNCIgeD0iMTI2IiB5PSI3MjguNjcxOSI+JiMxMDU5OyYjMTA4NzsmIzEwODg7JiMxMDcyOyYjMTA3NDsmIzEwODM7JiMxMDc3OyYjMTA4NTsmIzEwODA7JiMxMDc3OyAmIzEwNzk7JiMxMDcyOyYjMTA4MjsmIzEwNzI7JiMxMDc5OyYjMTA3MjsmIzEwODQ7JiMxMDgwOzwvdGV4dD48cmVjdCBmaWxsPSIjRTJFMkYwIiBoZWlnaHQ9IjI4Ljk4NDQiIHJ4PSIyLjUiIHJ5PSIyLjUiIHN0eWxlPSJzdHJva2U6IzE4MTgxODtzdHJva2Utd2lkdGg6MC41OyIgd2lkdGg9IjE0MSIgeD0iMzMyLjUiIHk9IjUwIi8+PHRleHQgZmlsbD0iIzAwMDAwMCIgZm9udC1mYW1pbHk9InNhbnMtc2VyaWYiIGZvbnQtc2l6ZT0iMTQiIGxlbmd0aEFkanVzdD0ic3BhY2luZyIgdGV4dExlbmd0aD0iMTI3IiB4PSIzMzkuNSIgeT0iNzAuMjM0NCI+JiMxMDU0OyYjMTA3MzsmIzEwODg7JiMxMDcyOyYjMTA3MzsmIzEwODY7JiMxMDkwOyYjMTA4MjsmIzEwNzI7ICYjMTA4NzsmIzEwODM7JiMxMDcyOyYjMTA5MDsmIzEwNzc7JiMxMDc4OyYjMTA3NzsmIzEwODE7PC90ZXh0PjxyZWN0IGZpbGw9IiNFMkUyRjAiIGhlaWdodD0iMjguOTg0NCIgcng9IjIuNSIgcnk9IjIuNSIgc3R5bGU9InN0cm9rZTojMTgxODE4O3N0cm9rZS13aWR0aDowLjU7IiB3aWR0aD0iMTQxIiB4PSIzMzIuNSIgeT0iNzA4LjQzNzUiLz48dGV4dCBmaWxsPSIjMDAwMDAwIiBmb250LWZhbWlseT0ic2Fucy1zZXJpZiIgZm9udC1zaXplPSIxNCIgbGVuZ3RoQWRqdXN0PSJzcGFjaW5nIiB0ZXh0TGVuZ3RoPSIxMjciIHg9IjMzOS41IiB5PSI3MjguNjcxOSI+JiMxMDU0OyYjMTA3MzsmIzEwODg7JiMxMDcyOyYjMTA3MzsmIzEwODY7JiMxMDkwOyYjMTA4MjsmIzEwNzI7ICYjMTA4NzsmIzEwODM7JiMxMDcyOyYjMTA5MDsmIzEwNzc7JiMxMDc4OyYjMTA3NzsmIzEwODE7PC90ZXh0PjxyZWN0IGZpbGw9IiNFMkUyRjAiIGhlaWdodD0iMjguOTg0NCIgcng9IjIuNSIgcnk9IjIuNSIgc3R5bGU9InN0cm9rZTojMTgxODE4O3N0cm9rZS13aWR0aDowLjU7IiB3aWR0aD0iMTU1IiB4PSI0ODMuNSIgeT0iNTAiLz48dGV4dCBmaWxsPSIjMDAwMDAwIiBmb250LWZhbWlseT0ic2Fucy1zZXJpZiIgZm9udC1zaXplPSIxNCIgbGVuZ3RoQWRqdXN0PSJzcGFjaW5nIiB0ZXh0TGVuZ3RoPSIxNDEiIHg9IjQ5MC41IiB5PSI3MC4yMzQ0Ij4mIzEwNTE7JiMxMDg2OyYjMTA3NTsmIzEwODA7JiMxMDg5OyYjMTA5MDsmIzEwODA7JiMxMDgyOyYjMTA3MjsgJiMxMDgwOyAmIzEwNzY7JiMxMDg2OyYjMTA4OTsmIzEwOTA7JiMxMDcyOyYjMTA3NDsmIzEwODI7JiMxMDcyOzwvdGV4dD48cmVjdCBmaWxsPSIjRTJFMkYwIiBoZWlnaHQ9IjI4Ljk4NDQiIHJ4PSIyLjUiIHJ5PSIyLjUiIHN0eWxlPSJzdHJva2U6IzE4MTgxODtzdHJva2Utd2lkdGg6MC41OyIgd2lkdGg9IjE1NSIgeD0iNDgzLjUiIHk9IjcwOC40Mzc1Ii8+PHRleHQgZmlsbD0iIzAwMDAwMCIgZm9udC1mYW1pbHk9InNhbnMtc2VyaWYiIGZvbnQtc2l6ZT0iMTQiIGxlbmd0aEFkanVzdD0ic3BhY2luZyIgdGV4dExlbmd0aD0iMTQxIiB4PSI0OTAuNSIgeT0iNzI4LjY3MTkiPiYjMTA1MTsmIzEwODY7JiMxMDc1OyYjMTA4MDsmIzEwODk7JiMxMDkwOyYjMTA4MDsmIzEwODI7JiMxMDcyOyAmIzEwODA7ICYjMTA3NjsmIzEwODY7JiMxMDg5OyYjMTA5MDsmIzEwNzI7JiMxMDc0OyYjMTA4MjsmIzEwNzI7PC90ZXh0PjxyZWN0IGZpbGw9IiNFMkUyRjAiIGhlaWdodD0iMjguOTg0NCIgcng9IjIuNSIgcnk9IjIuNSIgc3R5bGU9InN0cm9rZTojMTgxODE4O3N0cm9rZS13aWR0aDowLjU7IiB3aWR0aD0iMTQxIiB4PSI2OTEuNSIgeT0iNTAiLz48dGV4dCBmaWxsPSIjMDAwMDAwIiBmb250LWZhbWlseT0ic2Fucy1zZXJpZiIgZm9udC1zaXplPSIxNCIgbGVuZ3RoQWRqdXN0PSJzcGFjaW5nIiB0ZXh0TGVuZ3RoPSIxMjciIHg9IjY5OC41IiB5PSI3MC4yMzQ0Ij4mIzEwNTU7JiMxMDg2OyYjMTA3NjsmIzEwNzY7JiMxMDc3OyYjMTA4ODsmIzEwNzg7JiMxMDgyOyYjMTA3MjsgJiMxMDgyOyYjMTA4MzsmIzEwODA7JiMxMDc3OyYjMTA4NTsmIzEwOTA7JiMxMDg2OyYjMTA3NDs8L3RleHQ+PHJlY3QgZmlsbD0iI0UyRTJGMCIgaGVpZ2h0PSIyOC45ODQ0IiByeD0iMi41IiByeT0iMi41IiBzdHlsZT0ic3Ryb2tlOiMxODE4MTg7c3Ryb2tlLXdpZHRoOjAuNTsiIHdpZHRoPSIxNDEiIHg9IjY5MS41IiB5PSI3MDguNDM3NSIvPjx0ZXh0IGZpbGw9IiMwMDAwMDAiIGZvbnQtZmFtaWx5PSJzYW5zLXNlcmlmIiBmb250LXNpemU9IjE0IiBsZW5ndGhBZGp1c3Q9InNwYWNpbmciIHRleHRMZW5ndGg9IjEyNyIgeD0iNjk4LjUiIHk9IjcyOC42NzE5Ij4mIzEwNTU7JiMxMDg2OyYjMTA3NjsmIzEwNzY7JiMxMDc3OyYjMTA4ODsmIzEwNzg7JiMxMDgyOyYjMTA3MjsgJiMxMDgyOyYjMTA4MzsmIzEwODA7JiMxMDc3OyYjMTA4NTsmIzEwOTA7JiMxMDg2OyYjMTA3NDs8L3RleHQ+PHJlY3QgZmlsbD0iI0VFRUVFRSIgaGVpZ2h0PSIzIiBzdHlsZT0ic3Ryb2tlOiNFRUVFRUU7c3Ryb2tlLXdpZHRoOjEuMDsiIHdpZHRoPSI5NjMiIHg9IjAiIHk9IjEwOS45NDE0Ii8+PGxpbmUgc3R5bGU9InN0cm9rZTojMDAwMDAwO3N0cm9rZS13aWR0aDoxLjA7IiB4MT0iMCIgeDI9Ijk2MyIgeTE9IjEwOS45NDE0IiB5Mj0iMTA5Ljk0MTQiLz48bGluZSBzdHlsZT0ic3Ryb2tlOiMwMDAwMDA7c3Ryb2tlLXdpZHRoOjEuMDsiIHgxPSIwIiB4Mj0iOTYzIiB5MT0iMTEyLjk0MTQiIHkyPSIxMTIuOTQxNCIvPjxyZWN0IGZpbGw9IiNFRUVFRUUiIGhlaWdodD0iMjEuOTE0MSIgc3R5bGU9InN0cm9rZTojMDAwMDAwO3N0cm9rZS13aWR0aDoyLjA7IiB3aWR0aD0iMTE5IiB4PSI0MjIiIHk9Ijk5Ljk4NDQiLz48dGV4dCBmaWxsPSIjMDAwMDAwIiBmb250LWZhbWlseT0ic2Fucy1zZXJpZiIgZm9udC1zaXplPSIxMyIgZm9udC13ZWlnaHQ9ImJvbGQiIGxlbmd0aEFkanVzdD0ic3BhY2luZyIgdGV4dExlbmd0aD0iOTgiIHg9IjQyOCIgeT0iMTE2LjI3MzQiPiYjMTA1NTsmIzEwODg7JiMxMDg2OyYjMTA5NDsmIzEwNzc7JiMxMDg5OyYjMTA4OTsgJiMxMDc5OyYjMTA3MjsmIzEwODI7JiMxMDcyOyYjMTA3OTsmIzEwNzI7PC90ZXh0Pjxwb2x5Z29uIGZpbGw9IiMxODE4MTgiIHBvaW50cz0iMTgxLDE0Ny44MTI1LDE5MSwxNTEuODEyNSwxODEsMTU1LjgxMjUsMTg1LDE1MS44MTI1IiBzdHlsZT0ic3Ryb2tlOiMxODE4MTg7c3Ryb2tlLXdpZHRoOjEuMDsiLz48bGluZSBzdHlsZT0ic3Ryb2tlOiMxODE4MTg7c3Ryb2tlLXdpZHRoOjEuMDsiIHgxPSIzMCIgeDI9IjE4NyIgeTE9IjE1MS44MTI1IiB5Mj0iMTUxLjgxMjUiLz48dGV4dCBmaWxsPSIjMDAwMDAwIiBmb250LWZhbWlseT0ic2Fucy1zZXJpZiIgZm9udC1zaXplPSIxMyIgbGVuZ3RoQWRqdXN0PSJzcGFjaW5nIiB0ZXh0TGVuZ3RoPSI5NiIgeD0iMzciIHk9IjE0OC4xODc1Ij4mIzEwNTQ7JiMxMDkyOyYjMTA4NjsmIzEwODg7JiMxMDg0OyYjMTA4MDsmIzEwOTA7JiMxMTAwOyAmIzEwNzk7JiMxMDcyOyYjMTA4MjsmIzEwNzI7JiMxMDc5OzwvdGV4dD48bGluZSBzdHlsZT0ic3Ryb2tlOiMxODE4MTg7c3Ryb2tlLXdpZHRoOjEuMDsiIHgxPSIxOTMiIHgyPSIyMzUiIHkxPSIxNzkuNzI2NiIgeTI9IjE3OS43MjY2Ii8+PGxpbmUgc3R5bGU9InN0cm9rZTojMTgxODE4O3N0cm9rZS13aWR0aDoxLjA7IiB4MT0iMjM1IiB4Mj0iMjM1IiB5MT0iMTc5LjcyNjYiIHkyPSIxOTIuNzI2NiIvPjxsaW5lIHN0eWxlPSJzdHJva2U6IzE4MTgxODtzdHJva2Utd2lkdGg6MS4wOyIgeDE9IjE5NCIgeDI9IjIzNSIgeTE9IjE5Mi43MjY2IiB5Mj0iMTkyLjcyNjYiLz48cG9seWdvbiBmaWxsPSIjMTgxODE4IiBwb2ludHM9IjIwNCwxODguNzI2NiwxOTQsMTkyLjcyNjYsMjA0LDE5Ni43MjY2LDIwMCwxOTIuNzI2NiIgc3R5bGU9InN0cm9rZTojMTgxODE4O3N0cm9rZS13aWR0aDoxLjA7Ii8+PHRleHQgZmlsbD0iIzAwMDAwMCIgZm9udC1mYW1pbHk9InNhbnMtc2VyaWYiIGZvbnQtc2l6ZT0iMTMiIGxlbmd0aEFkanVzdD0ic3BhY2luZyIgdGV4dExlbmd0aD0iMTY2IiB4PSIyMDAiIHk9IjE3Ni4xMDE2Ij4mIzEwNTU7JiMxMDg4OyYjMTA4NjsmIzEwNzQ7JiMxMDc3OyYjMTA4ODsmIzEwODA7JiMxMDkwOyYjMTEwMDsgJiMxMDg1OyYjMTA3MjsmIzEwODM7JiMxMDgwOyYjMTA5NTsmIzEwODA7JiMxMDc3OyAmIzEwOTA7JiMxMDg2OyYjMTA3NDsmIzEwNzI7JiMxMDg4OyYjMTA3Mjs8L3RleHQ+PHBvbHlnb24gZmlsbD0iIzE4MTgxOCIgcG9pbnRzPSIzOTEsMjE2LjY0MDYsNDAxLDIyMC42NDA2LDM5MSwyMjQuNjQwNiwzOTUsMjIwLjY0MDYiIHN0eWxlPSJzdHJva2U6IzE4MTgxODtzdHJva2Utd2lkdGg6MS4wOyIvPjxsaW5lIHN0eWxlPSJzdHJva2U6IzE4MTgxODtzdHJva2Utd2lkdGg6MS4wOyIgeDE9IjE5MyIgeDI9IjM5NyIgeTE9IjIyMC42NDA2IiB5Mj0iMjIwLjY0MDYiLz48dGV4dCBmaWxsPSIjMDAwMDAwIiBmb250LWZhbWlseT0ic2Fucy1zZXJpZiIgZm9udC1zaXplPSIxMyIgbGVuZ3RoQWRqdXN0PSJzcGFjaW5nIiB0ZXh0TGVuZ3RoPSIxODYiIHg9IjIwMCIgeT0iMjE3LjAxNTYiPiYjMTA1NDsmIzEwOTA7JiMxMDg3OyYjMTA4ODsmIzEwNzI7JiMxMDc0OyYjMTA4MDsmIzEwOTA7JiMxMTAwOyAmIzEwNzY7JiMxMDcyOyYjMTA4NTsmIzEwODU7JiMxMDk5OyYjMTA3NzsgJiMxMDc2OyYjMTA4MzsmIzExMDM7ICYjMTA4NjsmIzEwODc7JiMxMDgzOyYjMTA3MjsmIzEwOTA7JiMxMDk5OzwvdGV4dD48cG9seWdvbiBmaWxsPSIjMTgxODE4IiBwb2ludHM9IjIwNCwyNDQuNTU0NywxOTQsMjQ4LjU1NDcsMjA0LDI1Mi41NTQ3LDIwMCwyNDguNTU0NyIgc3R5bGU9InN0cm9rZTojMTgxODE4O3N0cm9rZS13aWR0aDoxLjA7Ii8+PGxpbmUgc3R5bGU9InN0cm9rZTojMTgxODE4O3N0cm9rZS13aWR0aDoxLjA7IiB4MT0iMTk4IiB4Mj0iNDAyIiB5MT0iMjQ4LjU1NDciIHkyPSIyNDguNTU0NyIvPjx0ZXh0IGZpbGw9IiMwMDAwMDAiIGZvbnQtZmFtaWx5PSJzYW5zLXNlcmlmIiBmb250LXNpemU9IjEzIiBsZW5ndGhBZGp1c3Q9InNwYWNpbmciIHRleHRMZW5ndGg9IjEyMyIgeD0iMjEwIiB5PSIyNDQuOTI5NyI+JiMxMDU1OyYjMTA4NjsmIzEwNzY7JiMxMDkwOyYjMTA3NDsmIzEwNzc7JiMxMDg4OyYjMTA3NjsmIzEwODA7JiMxMDkwOyYjMTEwMDsgJiMxMDg2OyYjMTA4NzsmIzEwODM7JiMxMDcyOyYjMTA5MDsmIzEwOTE7PC90ZXh0Pjxwb2x5Z29uIGZpbGw9IiMxODE4MTgiIHBvaW50cz0iNDEsMjcyLjQ2ODgsMzEsMjc2LjQ2ODgsNDEsMjgwLjQ2ODgsMzcsMjc2LjQ2ODgiIHN0eWxlPSJzdHJva2U6IzE4MTgxODtzdHJva2Utd2lkdGg6MS4wOyIvPjxsaW5lIHN0eWxlPSJzdHJva2U6IzE4MTgxODtzdHJva2Utd2lkdGg6MS4wOyIgeDE9IjM1IiB4Mj0iMTkyIiB5MT0iMjc2LjQ2ODgiIHkyPSIyNzYuNDY4OCIvPjx0ZXh0IGZpbGw9IiMwMDAwMDAiIGZvbnQtZmFtaWx5PSJzYW5zLXNlcmlmIiBmb250LXNpemU9IjEzIiBsZW5ndGhBZGp1c3Q9InNwYWNpbmciIHRleHRMZW5ndGg9IjEzOSIgeD0iNDciIHk9IjI3Mi44NDM4Ij4mIzEwNTU7JiMxMDg2OyYjMTA3NjsmIzEwOTA7JiMxMDc0OyYjMTA3NzsmIzEwODg7JiMxMDc4OyYjMTA3NjsmIzEwNzc7JiMxMDg1OyYjMTA4MDsmIzEwNzc7ICYjMTA3OTsmIzEwNzI7JiMxMDgyOyYjMTA3MjsmIzEwNzk7JiMxMDcyOzwvdGV4dD48cmVjdCBmaWxsPSIjRUVFRUVFIiBoZWlnaHQ9IjMiIHN0eWxlPSJzdHJva2U6I0VFRUVFRTtzdHJva2Utd2lkdGg6MS4wOyIgd2lkdGg9Ijk2MyIgeD0iMCIgeT0iMzA0LjQyNTgiLz48bGluZSBzdHlsZT0ic3Ryb2tlOiMwMDAwMDA7c3Ryb2tlLXdpZHRoOjEuMDsiIHgxPSIwIiB4Mj0iOTYzIiB5MT0iMzA0LjQyNTgiIHkyPSIzMDQuNDI1OCIvPjxsaW5lIHN0eWxlPSJzdHJva2U6IzAwMDAwMDtzdHJva2Utd2lkdGg6MS4wOyIgeDE9IjAiIHgyPSI5NjMiIHkxPSIzMDcuNDI1OCIgeTI9IjMwNy40MjU4Ii8+PHJlY3QgZmlsbD0iI0VFRUVFRSIgaGVpZ2h0PSIyMS45MTQxIiBzdHlsZT0ic3Ryb2tlOiMwMDAwMDA7c3Ryb2tlLXdpZHRoOjIuMDsiIHdpZHRoPSIxMzIiIHg9IjQxNS41IiB5PSIyOTQuNDY4OCIvPjx0ZXh0IGZpbGw9IiMwMDAwMDAiIGZvbnQtZmFtaWx5PSJzYW5zLXNlcmlmIiBmb250LXNpemU9IjEzIiBmb250LXdlaWdodD0iYm9sZCIgbGVuZ3RoQWRqdXN0PSJzcGFjaW5nIiB0ZXh0TGVuZ3RoPSIxMTEiIHg9IjQyMS41IiB5PSIzMTAuNzU3OCI+JiMxMDU1OyYjMTA4ODsmIzEwODY7JiMxMDk0OyYjMTA3NzsmIzEwODk7JiMxMDg5OyAmIzEwNzY7JiMxMDg2OyYjMTA4OTsmIzEwOTA7JiMxMDcyOyYjMTA3NDsmIzEwODI7JiMxMDgwOzwvdGV4dD48cG9seWdvbiBmaWxsPSIjMTgxODE4IiBwb2ludHM9IjU0OSwzNDIuMjk2OSw1NTksMzQ2LjI5NjksNTQ5LDM1MC4yOTY5LDU1MywzNDYuMjk2OSIgc3R5bGU9InN0cm9rZTojMTgxODE4O3N0cm9rZS13aWR0aDoxLjA7Ii8+PGxpbmUgc3R5bGU9InN0cm9rZTojMTgxODE4O3N0cm9rZS13aWR0aDoxLjA7IiB4MT0iMTkzIiB4Mj0iNTU1IiB5MT0iMzQ2LjI5NjkiIHkyPSIzNDYuMjk2OSIvPjx0ZXh0IGZpbGw9IiMwMDAwMDAiIGZvbnQtZmFtaWx5PSJzYW5zLXNlcmlmIiBmb250LXNpemU9IjEzIiBsZW5ndGhBZGp1c3Q9InNwYWNpbmciIHRleHRMZW5ndGg9IjE3MyIgeD0iMjAwIiB5PSIzNDIuNjcxOSI+JiMxMDU0OyYjMTA5MDsmIzEwODc7JiMxMDg4OyYjMTA3MjsmIzEwNzQ7JiMxMDgwOyYjMTA5MDsmIzExMDA7ICYjMTA3NjsmIzEwNzI7JiMxMDg1OyYjMTA4NTsmIzEwOTk7JiMxMDc3OyAmIzEwODY7ICYjMTA3OTsmIzEwNzI7JiMxMDgyOyYjMTA3MjsmIzEwNzk7JiMxMDc3OzwvdGV4dD48bGluZSBzdHlsZT0ic3Ryb2tlOiMxODE4MTg7c3Ryb2tlLXdpZHRoOjEuMDsiIHgxPSI1NjEiIHgyPSI2MDMiIHkxPSIzNzQuMjEwOSIgeTI9IjM3NC4yMTA5Ii8+PGxpbmUgc3R5bGU9InN0cm9rZTojMTgxODE4O3N0cm9rZS13aWR0aDoxLjA7IiB4MT0iNjAzIiB4Mj0iNjAzIiB5MT0iMzc0LjIxMDkiIHkyPSIzODcuMjEwOSIvPjxsaW5lIHN0eWxlPSJzdHJva2U6IzE4MTgxODtzdHJva2Utd2lkdGg6MS4wOyIgeDE9IjU2MiIgeDI9IjYwMyIgeTE9IjM4Ny4yMTA5IiB5Mj0iMzg3LjIxMDkiLz48cG9seWdvbiBmaWxsPSIjMTgxODE4IiBwb2ludHM9IjU3MiwzODMuMjEwOSw1NjIsMzg3LjIxMDksNTcyLDM5MS4yMTA5LDU2OCwzODcuMjEwOSIgc3R5bGU9InN0cm9rZTojMTgxODE4O3N0cm9rZS13aWR0aDoxLjA7Ii8+PHRleHQgZmlsbD0iIzAwMDAwMCIgZm9udC1mYW1pbHk9InNhbnMtc2VyaWYiIGZvbnQtc2l6ZT0iMTMiIGxlbmd0aEFkanVzdD0ic3BhY2luZyIgdGV4dExlbmd0aD0iMTg3IiB4PSI1NjgiIHk9IjM3MC41ODU5Ij4mIzEwNTQ7JiMxMDg4OyYjMTA3NTsmIzEwNzI7JiMxMDg1OyYjMTA4MDsmIzEwNzk7JiMxMDg2OyYjMTA3NDsmIzEwNzI7JiMxMDkwOyYjMTEwMDsgJiMxMDc0OyYjMTA4ODsmIzEwNzc7JiMxMDg0OyYjMTEwMzsgJiMxMDc2OyYjMTA4NjsmIzEwODk7JiMxMDkwOyYjMTA3MjsmIzEwNzQ7JiMxMDgyOyYjMTA4MDs8L3RleHQ+PGxpbmUgc3R5bGU9InN0cm9rZTojMTgxODE4O3N0cm9rZS13aWR0aDoxLjA7IiB4MT0iNTYxIiB4Mj0iNjAzIiB5MT0iNDE1LjEyNSIgeTI9IjQxNS4xMjUiLz48bGluZSBzdHlsZT0ic3Ryb2tlOiMxODE4MTg7c3Ryb2tlLXdpZHRoOjEuMDsiIHgxPSI2MDMiIHgyPSI2MDMiIHkxPSI0MTUuMTI1IiB5Mj0iNDI4LjEyNSIvPjxsaW5lIHN0eWxlPSJzdHJva2U6IzE4MTgxODtzdHJva2Utd2lkdGg6MS4wOyIgeDE9IjU2MiIgeDI9IjYwMyIgeTE9IjQyOC4xMjUiIHkyPSI0MjguMTI1Ii8+PHBvbHlnb24gZmlsbD0iIzE4MTgxOCIgcG9pbnRzPSI1NzIsNDI0LjEyNSw1NjIsNDI4LjEyNSw1NzIsNDMyLjEyNSw1NjgsNDI4LjEyNSIgc3R5bGU9InN0cm9rZTojMTgxODE4O3N0cm9rZS13aWR0aDoxLjA7Ii8+PHRleHQgZmlsbD0iIzAwMDAwMCIgZm9udC1mYW1pbHk9InNhbnMtc2VyaWYiIGZvbnQtc2l6ZT0iMTMiIGxlbmd0aEFkanVzdD0ic3BhY2luZyIgdGV4dExlbmd0aD0iMTA0IiB4PSI1NjgiIHk9IjQxMS41Ij4mIzEwNTQ7JiMxMDkwOyYjMTA4NzsmIzEwODg7JiMxMDcyOyYjMTA3NDsmIzEwODI7JiMxMDcyOyAmIzEwNzk7JiMxMDcyOyYjMTA4MjsmIzEwNzI7JiMxMDc5OyYjMTA3Mjs8L3RleHQ+PGxpbmUgc3R5bGU9InN0cm9rZTojMTgxODE4O3N0cm9rZS13aWR0aDoxLjA7IiB4MT0iNTYxIiB4Mj0iNjAzIiB5MT0iNDU2LjAzOTEiIHkyPSI0NTYuMDM5MSIvPjxsaW5lIHN0eWxlPSJzdHJva2U6IzE4MTgxODtzdHJva2Utd2lkdGg6MS4wOyIgeDE9IjYwMyIgeDI9IjYwMyIgeTE9IjQ1Ni4wMzkxIiB5Mj0iNDY5LjAzOTEiLz48bGluZSBzdHlsZT0ic3Ryb2tlOiMxODE4MTg7c3Ryb2tlLXdpZHRoOjEuMDsiIHgxPSI1NjIiIHgyPSI2MDMiIHkxPSI0NjkuMDM5MSIgeTI9IjQ2OS4wMzkxIi8+PHBvbHlnb24gZmlsbD0iIzE4MTgxOCIgcG9pbnRzPSI1NzIsNDY1LjAzOTEsNTYyLDQ2OS4wMzkxLDU3Miw0NzMuMDM5MSw1NjgsNDY5LjAzOTEiIHN0eWxlPSJzdHJva2U6IzE4MTgxODtzdHJva2Utd2lkdGg6MS4wOyIvPjx0ZXh0IGZpbGw9IiMwMDAwMDAiIGZvbnQtZmFtaWx5PSJzYW5zLXNlcmlmIiBmb250LXNpemU9IjEzIiBsZW5ndGhBZGp1c3Q9InNwYWNpbmciIHRleHRMZW5ndGg9IjE4NiIgeD0iNTY4IiB5PSI0NTIuNDE0MSI+JiMxMDU0OyYjMTA3MzsmIzEwODU7JiMxMDg2OyYjMTA3NDsmIzEwODM7JiMxMDc3OyYjMTA4NTsmIzEwODA7JiMxMDc3OyAmIzEwODk7JiMxMDkwOyYjMTA3MjsmIzEwOTA7JiMxMDkxOyYjMTA4OTsmIzEwNzI7ICYjMTA3NjsmIzEwODY7JiMxMDg5OyYjMTA5MDsmIzEwNzI7JiMxMDc0OyYjMTA4MjsmIzEwODA7PC90ZXh0Pjxwb2x5Z29uIGZpbGw9IiMxODE4MTgiIHBvaW50cz0iNDEsNDkyLjk1MzEsMzEsNDk2Ljk1MzEsNDEsNTAwLjk1MzEsMzcsNDk2Ljk1MzEiIHN0eWxlPSJzdHJva2U6IzE4MTgxODtzdHJva2Utd2lkdGg6MS4wOyIvPjxsaW5lIHN0eWxlPSJzdHJva2U6IzE4MTgxODtzdHJva2Utd2lkdGg6MS4wOyIgeDE9IjM1IiB4Mj0iNTYwIiB5MT0iNDk2Ljk1MzEiIHkyPSI0OTYuOTUzMSIvPjx0ZXh0IGZpbGw9IiMwMDAwMDAiIGZvbnQtZmFtaWx5PSJzYW5zLXNlcmlmIiBmb250LXNpemU9IjEzIiBsZW5ndGhBZGp1c3Q9InNwYWNpbmciIHRleHRMZW5ndGg9IjE2NCIgeD0iNDciIHk9IjQ5My4zMjgxIj4mIzEwNTc7JiMxMDg2OyYjMTA4NjsmIzEwNzM7JiMxMDk3OyYjMTA4MDsmIzEwOTA7JiMxMTAwOyAmIzEwODk7JiMxMDkwOyYjMTA3MjsmIzEwOTA7JiMxMDkxOyYjMTA4OTsgJiMxMDc2OyYjMTA4NjsmIzEwODk7JiMxMDkwOyYjMTA3MjsmIzEwNzQ7JiMxMDgyOyYjMTA4MDs8L3RleHQ+PHJlY3QgZmlsbD0iI0VFRUVFRSIgaGVpZ2h0PSIzIiBzdHlsZT0ic3Ryb2tlOiNFRUVFRUU7c3Ryb2tlLXdpZHRoOjEuMDsiIHdpZHRoPSI5NjMiIHg9IjAiIHk9IjUyNC45MTAyIi8+PGxpbmUgc3R5bGU9InN0cm9rZTojMDAwMDAwO3N0cm9rZS13aWR0aDoxLjA7IiB4MT0iMCIgeDI9Ijk2MyIgeTE9IjUyNC45MTAyIiB5Mj0iNTI0LjkxMDIiLz48bGluZSBzdHlsZT0ic3Ryb2tlOiMwMDAwMDA7c3Ryb2tlLXdpZHRoOjEuMDsiIHgxPSIwIiB4Mj0iOTYzIiB5MT0iNTI3LjkxMDIiIHkyPSI1MjcuOTEwMiIvPjxyZWN0IGZpbGw9IiNFRUVFRUUiIGhlaWdodD0iMjEuOTE0MSIgc3R5bGU9InN0cm9rZTojMDAwMDAwO3N0cm9rZS13aWR0aDoyLjA7IiB3aWR0aD0iMTQ2IiB4PSI0MDguNSIgeT0iNTE0Ljk1MzEiLz48dGV4dCBmaWxsPSIjMDAwMDAwIiBmb250LWZhbWlseT0ic2Fucy1zZXJpZiIgZm9udC1zaXplPSIxMyIgZm9udC13ZWlnaHQ9ImJvbGQiIGxlbmd0aEFkanVzdD0ic3BhY2luZyIgdGV4dExlbmd0aD0iMTI1IiB4PSI0MTQuNSIgeT0iNTMxLjI0MjIiPiYjMTA1NTsmIzEwODY7JiMxMDc2OyYjMTA3NjsmIzEwNzc7JiMxMDg4OyYjMTA3ODsmIzEwODI7JiMxMDcyOyAmIzEwODI7JiMxMDgzOyYjMTA4MDsmIzEwNzc7JiMxMDg1OyYjMTA5MDsmIzEwODY7JiMxMDc0OzwvdGV4dD48cG9seWdvbiBmaWxsPSIjMTgxODE4IiBwb2ludHM9Ijc1MCw1NjIuNzgxMyw3NjAsNTY2Ljc4MTMsNzUwLDU3MC43ODEzLDc1NCw1NjYuNzgxMyIgc3R5bGU9InN0cm9rZTojMTgxODE4O3N0cm9rZS13aWR0aDoxLjA7Ii8+PGxpbmUgc3R5bGU9InN0cm9rZTojMTgxODE4O3N0cm9rZS13aWR0aDoxLjA7IiB4MT0iMzAiIHgyPSI3NTYiIHkxPSI1NjYuNzgxMyIgeTI9IjU2Ni43ODEzIi8+PHRleHQgZmlsbD0iIzAwMDAwMCIgZm9udC1mYW1pbHk9InNhbnMtc2VyaWYiIGZvbnQtc2l6ZT0iMTMiIGxlbmd0aEFkanVzdD0ic3BhY2luZyIgdGV4dExlbmd0aD0iMTU5IiB4PSIzNyIgeT0iNTYzLjE1NjMiPiYjMTA1NDsmIzEwOTA7JiMxMDg3OyYjMTA4ODsmIzEwNzI7JiMxMDc0OyYjMTA4MDsmIzEwOTA7JiMxMTAwOyAmIzEwNzk7JiMxMDcyOyYjMTA4NzsmIzEwODg7JiMxMDg2OyYjMTA4OTsvJiMxMDc4OyYjMTA3MjsmIzEwODM7JiMxMDg2OyYjMTA3MzsmIzEwOTE7PC90ZXh0PjxsaW5lIHN0eWxlPSJzdHJva2U6IzE4MTgxODtzdHJva2Utd2lkdGg6MS4wOyIgeDE9Ijc2MiIgeDI9IjgwNCIgeTE9IjU5NC42OTUzIiB5Mj0iNTk0LjY5NTMiLz48bGluZSBzdHlsZT0ic3Ryb2tlOiMxODE4MTg7c3Ryb2tlLXdpZHRoOjEuMDsiIHgxPSI4MDQiIHgyPSI4MDQiIHkxPSI1OTQuNjk1MyIgeTI9IjYwNy42OTUzIi8+PGxpbmUgc3R5bGU9InN0cm9rZTojMTgxODE4O3N0cm9rZS13aWR0aDoxLjA7IiB4MT0iNzYzIiB4Mj0iODA0IiB5MT0iNjA3LjY5NTMiIHkyPSI2MDcuNjk1MyIvPjxwb2x5Z29uIGZpbGw9IiMxODE4MTgiIHBvaW50cz0iNzczLDYwMy42OTUzLDc2Myw2MDcuNjk1Myw3NzMsNjExLjY5NTMsNzY5LDYwNy42OTUzIiBzdHlsZT0ic3Ryb2tlOiMxODE4MTg7c3Ryb2tlLXdpZHRoOjEuMDsiLz48dGV4dCBmaWxsPSIjMDAwMDAwIiBmb250LWZhbWlseT0ic2Fucy1zZXJpZiIgZm9udC1zaXplPSIxMyIgbGVuZ3RoQWRqdXN0PSJzcGFjaW5nIiB0ZXh0TGVuZ3RoPSIxODciIHg9Ijc2OSIgeT0iNTkxLjA3MDMiPiYjMTA1NDsmIzEwNzM7JiMxMDg4OyYjMTA3MjsmIzEwNzM7JiMxMDg2OyYjMTA5MDsmIzEwODI7JiMxMDcyOyAmIzEwNzk7JiMxMDcyOyYjMTA4NzsmIzEwODg7JiMxMDg2OyYjMTA4OTsmIzEwODY7JiMxMDc0OyAmIzEwODI7JiMxMDgzOyYjMTA4MDsmIzEwNzc7JiMxMDg1OyYjMTA5MDsmIzEwODY7JiMxMDc0OzwvdGV4dD48cG9seWdvbiBmaWxsPSIjMTgxODE4IiBwb2ludHM9IjU3Miw2MzEuNjA5NCw1NjIsNjM1LjYwOTQsNTcyLDYzOS42MDk0LDU2OCw2MzUuNjA5NCIgc3R5bGU9InN0cm9rZTojMTgxODE4O3N0cm9rZS13aWR0aDoxLjA7Ii8+PGxpbmUgc3R5bGU9InN0cm9rZTojMTgxODE4O3N0cm9rZS13aWR0aDoxLjA7IiB4MT0iNTY2IiB4Mj0iNzYxIiB5MT0iNjM1LjYwOTQiIHkyPSI2MzUuNjA5NCIvPjx0ZXh0IGZpbGw9IiMwMDAwMDAiIGZvbnQtZmFtaWx5PSJzYW5zLXNlcmlmIiBmb250LXNpemU9IjEzIiBsZW5ndGhBZGp1c3Q9InNwYWNpbmciIHRleHRMZW5ndGg9IjE3MyIgeD0iNTc4IiB5PSI2MzEuOTg0NCI+JiMxMDU0OyYjMTA3MzsmIzEwODg7JiMxMDcyOyYjMTA3MzsmIzEwODY7JiMxMDkwOyYjMTA4MjsmIzEwNzI7ICYjMTA3NDsmIzEwODY7JiMxMDc5OyYjMTA3NDsmIzEwODg7JiMxMDcyOyYjMTA5MDsmIzEwODY7JiMxMDc0Oy8mIzEwNzg7JiMxMDcyOyYjMTA4MzsmIzEwODY7JiMxMDczOzwvdGV4dD48cG9seWdvbiBmaWxsPSIjMTgxODE4IiBwb2ludHM9IjQxLDY1OS41MjM0LDMxLDY2My41MjM0LDQxLDY2Ny41MjM0LDM3LDY2My41MjM0IiBzdHlsZT0ic3Ryb2tlOiMxODE4MTg7c3Ryb2tlLXdpZHRoOjEuMDsiLz48bGluZSBzdHlsZT0ic3Ryb2tlOiMxODE4MTg7c3Ryb2tlLXdpZHRoOjEuMDsiIHgxPSIzNSIgeDI9Ijc2MSIgeTE9IjY2My41MjM0IiB5Mj0iNjYzLjUyMzQiLz48dGV4dCBmaWxsPSIjMDAwMDAwIiBmb250LWZhbWlseT0ic2Fucy1zZXJpZiIgZm9udC1zaXplPSIxMyIgbGVuZ3RoQWRqdXN0PSJzcGFjaW5nIiB0ZXh0TGVuZ3RoPSIyNzIiIHg9IjQ3IiB5PSI2NTkuODk4NCI+JiMxMDU1OyYjMTA4ODsmIzEwNzc7JiMxMDc2OyYjMTA4NjsmIzEwODk7JiMxMDkwOyYjMTA3MjsmIzEwNzQ7JiMxMDgzOyYjMTA3NzsmIzEwODU7JiMxMDgwOyYjMTA3NzsgJiMxMDg3OyYjMTA4NjsmIzEwNzY7JiMxMDc2OyYjMTA3NzsmIzEwODg7JiMxMDc4OyYjMTA4MjsmIzEwODA7ICYjMTA4MDsgJiMxMDg4OyYjMTA3NzsmIzEwODI7JiMxMDg2OyYjMTA4NDsmIzEwNzc7JiMxMDg1OyYjMTA3NjsmIzEwNzI7JiMxMDk0OyYjMTA4MDsmIzEwODE7PC90ZXh0Pjxwb2x5Z29uIGZpbGw9IiMxODE4MTgiIHBvaW50cz0iNDEsNjg3LjQzNzUsMzEsNjkxLjQzNzUsNDEsNjk1LjQzNzUsMzcsNjkxLjQzNzUiIHN0eWxlPSJzdHJva2U6IzE4MTgxODtzdHJva2Utd2lkdGg6MS4wOyIvPjxsaW5lIHN0eWxlPSJzdHJva2U6IzE4MTgxODtzdHJva2Utd2lkdGg6MS4wOyIgeDE9IjM1IiB4Mj0iNzYxIiB5MT0iNjkxLjQzNzUiIHkyPSI2OTEuNDM3NSIvPjx0ZXh0IGZpbGw9IiMwMDAwMDAiIGZvbnQtZmFtaWx5PSJzYW5zLXNlcmlmIiBmb250LXNpemU9IjEzIiBsZW5ndGhBZGp1c3Q9InNwYWNpbmciIHRleHRMZW5ndGg9IjIwOCIgeD0iNDciIHk9IjY4Ny44MTI1Ij4mIzEwNTU7JiMxMDg2OyYjMTA3NjsmIzEwOTA7JiMxMDc0OyYjMTA3NzsmIzEwODg7JiMxMDc4OyYjMTA3NjsmIzEwNzc7JiMxMDg1OyYjMTA4MDsmIzEwNzc7ICYjMTA4ODsmIzEwNzc7JiMxMDk2OyYjMTA3NzsmIzEwODU7JiMxMDgwOyYjMTEwMzsgJiMxMDg3OyYjMTA4ODsmIzEwODY7JiMxMDczOyYjMTA4MzsmIzEwNzc7JiMxMDg0OyYjMTA5OTs8L3RleHQ+PCEtLVNSQz1bWkxIQlJpOG01RHBkNTVSdExHTFhMSWNMU2ZJODVQaU1LR3YwcWdlVktRZHhMVzlMbEsxODRtWVY5NVR1bGI3ZHNPNE80ekdBSFNac3BCcHRuZkM0X1Y3VElEMDdSSWNkWjBlUEVTRFdEMXhxMXlGV1RZbWt3OWlnRVE2TzRZMW1wWVgxQXNuaXlGM19abDhCNFRtQmxzQ25QeEhHcDBNTENjQXVlMGVZQ0hPUEJWNmlEUXpoeUp3ZmYxX0FQR1hXaGRjdmUxR2dsQ0VUTzR6Sk5PaXcxcE41QnFGWGZRUGtjaWJtYzZYVXB0NHlKejBTaTU4LTBIeEF5NldndU5jRVFPZ3VsQzYwcnU5Y3lYNksyS3lqOF9iY2Exb19TcTBmT0pKQVZUSXUwWFo4b01WYmU2dTZOaTJXRlI2aHZBRTN0cEtublE5MDNyQ3NGZ01qVjFWV3JheEFnVUR0Y3g4eUZYSHF1TklscUEwVndiaGNRMlV5OUhsT1NqRWpkWHJWSXl3LXJVRXVfbllkRDBqYVpreVFwMGIyNEFpc0xoTE5ZZl9XOEFDVGtzM0xGZ090WExLQ3AzYkM3RDlQQUZhY3RMZ0p0UDhYS3psQk0xUC1HUUg0dTVfaEVLc0hLbWRqdjl6WFJLclhoenJON2gxSVRuRFVHT3gzbmx0V25kaUR4VklERDZZZ2VqdDJka3dzcW5EV0xrZkVPZXF0UWpUS0VzbGdfYW4zWkV6QVBMY0l5d2tsMjFrU3gxR0cwS0J5U2JnVnFKLVJQVFFIQnRoOXlMNVpPdllqb2pGcTVtMDBdLS0+PC9nPjwvc3ZnPg==;" vertex="1" parent="1">
            <mxGeometry x="-899" y="-210" width="970" height="788" as="geometry" />
          </mxCell>
        </UserObject>
        <mxCell id="S__Zm3ARt8MM6DnXtygB-2" value="&lt;div&gt;&lt;font style=&quot;font-size: 18px;&quot;&gt;@startuml&lt;/font&gt;&lt;/div&gt;&lt;div&gt;&lt;font size=&quot;3&quot;&gt;actor Клиент&lt;/font&gt;&lt;/div&gt;&lt;div&gt;&lt;font size=&quot;3&quot;&gt;participant &quot;Управление заказами&quot; as A1&lt;/font&gt;&lt;/div&gt;&lt;div&gt;&lt;font size=&quot;3&quot;&gt;participant &quot;Обработка платежей&quot; as A2&lt;/font&gt;&lt;/div&gt;&lt;div&gt;&lt;font size=&quot;3&quot;&gt;participant &quot;Логистика и доставка&quot; as A3&lt;/font&gt;&lt;/div&gt;&lt;div&gt;&lt;font size=&quot;3&quot;&gt;participant &quot;Поддержка клиентов&quot; as A4&lt;/font&gt;&lt;/div&gt;&lt;div&gt;&lt;font size=&quot;3&quot;&gt;&lt;br&gt;&lt;/font&gt;&lt;/div&gt;&lt;div&gt;&lt;font size=&quot;3&quot;&gt;== Процесс заказа ==&lt;/font&gt;&lt;/div&gt;&lt;div&gt;&lt;font size=&quot;3&quot;&gt;Клиент -&amp;gt; A1: Оформить заказ&lt;/font&gt;&lt;/div&gt;&lt;div&gt;&lt;font size=&quot;3&quot;&gt;A1 -&amp;gt; A1: Проверить наличие товара&lt;/font&gt;&lt;/div&gt;&lt;div&gt;&lt;font size=&quot;3&quot;&gt;A1 -&amp;gt; A2: Отправить данные для оплаты&lt;/font&gt;&lt;/div&gt;&lt;div&gt;&lt;font size=&quot;3&quot;&gt;A2 -&amp;gt; A1: Подтвердить оплату&lt;/font&gt;&lt;/div&gt;&lt;div&gt;&lt;font size=&quot;3&quot;&gt;A1 -&amp;gt; Клиент: Подтверждение заказа&lt;/font&gt;&lt;/div&gt;&lt;div&gt;&lt;font size=&quot;3&quot;&gt;&lt;br&gt;&lt;/font&gt;&lt;/div&gt;&lt;div&gt;&lt;font size=&quot;3&quot;&gt;== Процесс доставки ==&lt;/font&gt;&lt;/div&gt;&lt;div&gt;&lt;font size=&quot;3&quot;&gt;A1 -&amp;gt; A3: Отправить данные о заказе&lt;/font&gt;&lt;/div&gt;&lt;div&gt;&lt;font size=&quot;3&quot;&gt;A3 -&amp;gt; A3: Организовать время доставки&lt;/font&gt;&lt;/div&gt;&lt;div&gt;&lt;font size=&quot;3&quot;&gt;A3 -&amp;gt; A3: Отправка заказа&lt;/font&gt;&lt;/div&gt;&lt;div&gt;&lt;font size=&quot;3&quot;&gt;A3 -&amp;gt; A3: Обновление статуса доставки&lt;/font&gt;&lt;/div&gt;&lt;div&gt;&lt;font size=&quot;3&quot;&gt;A3 -&amp;gt; Клиент: Сообщить статус доставки&lt;/font&gt;&lt;/div&gt;&lt;div&gt;&lt;font size=&quot;3&quot;&gt;&lt;br&gt;&lt;/font&gt;&lt;/div&gt;&lt;div&gt;&lt;font size=&quot;3&quot;&gt;== Поддержка клиентов ==&lt;/font&gt;&lt;/div&gt;&lt;div&gt;&lt;font size=&quot;3&quot;&gt;Клиент -&amp;gt; A4: Отправить запрос/жалобу&lt;/font&gt;&lt;/div&gt;&lt;div&gt;&lt;font size=&quot;3&quot;&gt;A4 -&amp;gt; A4: Обработка запросов клиентов&lt;/font&gt;&lt;/div&gt;&lt;div&gt;&lt;font size=&quot;3&quot;&gt;A4 -&amp;gt; A3: Обработка возвратов/жалоб&lt;/font&gt;&lt;/div&gt;&lt;div&gt;&lt;font size=&quot;3&quot;&gt;A4 -&amp;gt; Клиент: Предоставление поддержки и рекомендаций&lt;/font&gt;&lt;/div&gt;&lt;div&gt;&lt;font size=&quot;3&quot;&gt;A4 -&amp;gt; Клиент: Подтверждение решения проблемы&lt;/font&gt;&lt;/div&gt;&lt;div&gt;&lt;font size=&quot;3&quot;&gt;&lt;br&gt;&lt;/font&gt;&lt;/div&gt;&lt;div&gt;&lt;font size=&quot;3&quot;&gt;@enduml&lt;/font&gt;&lt;/div&gt;&lt;div&gt;&lt;br&gt;&lt;/div&gt;" style="text;html=1;align=left;verticalAlign=middle;whiteSpace=wrap;rounded=0;" vertex="1" parent="1">
          <mxGeometry x="-880" y="630" width="980" height="570" as="geometry" />
        </mxCell>
      </root>
    </mxGraphModel>
  </diagram>
</mxfile>
